<svg id="Layer_6" enable-background="new 0 0 64 64" height="512" viewBox="0 0 64 64" width="512" xmlns="http://www.w3.org/2000/svg"><g><g><path d="m2 28.994v10 15 1h33v-26z" fill="#f0bc5e"/></g><g><path d="m18.64 32.226-.64-.534-.64.534c-.26.216-6.36 5.373-6.36 11.768 0 5.537 4.579 7 7 7s7-1.463 7-7c0-6.395-6.1-11.552-6.36-11.768zm-.642 16.768c-.231 0-4.998-.072-4.998-5 0-4.33 3.523-8.207 5.001-9.643 1.478 1.433 4.999 5.301 4.999 9.643 0 4.819-4.482 4.996-5.002 5z"/><path d="m17.553 39.099c-.261.131-2.553 1.406-2.553 5.895h2c0-3.239 1.411-4.083 1.471-4.118l-.471-.882z"/><path d="m58.109 15.942-14.121-3.862c-3.531-.962-7.191 1.123-8.156 4.654l-2.507 9.17-6.325-6.324v-2.586h2v-12h-2v-4h-17v4h-2v12h2v2.586l-9 9v25.414 1c0 4.336 3.664 8 8 8h19c3.185 0 5.934-1.876 7.22-4.577l10.399 3.208c.583.16 1.174.238 1.762.238 1.139 0 2.264-.296 3.28-.875 1.541-.879 2.646-2.305 3.114-4.016l8.988-32.873c.966-3.533-1.121-7.191-4.654-8.157zm-20.348 1.32c.675-2.468 3.228-3.928 5.7-3.252l6.096 1.667-2.464 9.01-10.583-2.894zm-1.782 6.458 10.587 2.895-2.437 8.912-8.129-2.29v-4.657l-1.067-1.067zm.021 16.298c.28-.1.708-.144 1.221-.004.858.235 1.266.793 1.215.976-.05.183-.686.455-1.542.221-.349-.096-.666-.259-.894-.457zm0 2.993c.122.044.239.095.367.13.404.11.803.163 1.185.163 1.371 0 2.512-.678 2.815-1.786.387-1.417-.763-2.925-2.618-3.432-.599-.164-1.198-.193-1.749-.114v-2.657l7.602 2.142-2.502 9.149-5.1-1.378zm9.527-5.013 10.55 2.972-2.464 9.012-10.582-2.856zm.527-1.929 2.441-8.927 10.572 2.891-2.463 9.008zm-34.054-33.075h13v2h-13zm-2 4h17v8h-17zm18 54h-19c-3.252 0-6-2.748-6-6v-1-24.586l9-9v-3.414h13v3.414l9 9v25.586c0 3.308-2.691 6-6 6zm8-6v-1.043c.695-.303 1.192-.824 1.375-1.494.203-.739-.014-1.546-.594-2.213-.217-.25-.485-.469-.78-.66v-2.284l4.573 1.234-2.381 8.707-2.342-.723c.095-.494.149-1.003.149-1.524zm15.846 1.45c-.327 1.195-1.1 2.192-2.177 2.806-1.077.615-2.328.773-3.492.455l-6.073-1.874 2.4-8.776 10.582 2.856zm8.988-32.873-1.24 4.534-10.572-2.891 2.464-9.01 6.096 1.667c1.196.327 2.192 1.1 2.807 2.177s.772 2.327.445 3.523z"/><path d="m42.348 21.263c.404.11.804.163 1.186.163 1.37 0 2.511-.677 2.814-1.786.387-1.417-.763-2.924-2.618-3.431-.815-.224-1.654-.216-2.362.02-.838.279-1.436.863-1.638 1.602-.386 1.417.763 2.925 2.618 3.432zm-.348-3.137c.333-.11.771-.106 1.203.012.858.234 1.266.792 1.216.974-.051.183-.687.455-1.543.222-.858-.235-1.266-.793-1.215-.976.016-.063.13-.162.339-.232z"/><path d="m39.357 32.201c.395.108.796.162 1.185.162.413 0 .813-.061 1.177-.182.838-.279 1.436-.863 1.637-1.602.203-.74-.014-1.546-.594-2.213-.49-.563-1.208-.996-2.023-1.219-1.854-.508-3.611.206-4 1.622-.202.739.015 1.546.595 2.212.491.565 1.209.998 2.023 1.22zm.855-3.125c.431.118.811.338 1.042.603.144.166.191.309.174.373-.017.063-.13.163-.339.232-.332.11-.771.107-1.203-.012-.432-.118-.811-.337-1.042-.602-.145-.166-.191-.309-.175-.372.05-.183.685-.454 1.543-.222z"/><path d="m56.231 19.627c-1.854-.509-3.612.206-4 1.622-.387 1.417.763 2.925 2.618 3.432.395.108.796.162 1.185.162.413 0 .813-.061 1.177-.182.838-.279 1.436-.863 1.637-1.602.203-.739-.014-1.546-.594-2.213-.489-.563-1.208-.996-2.023-1.219zm.349 3.137c-.334.11-.771.106-1.203-.012-.858-.234-1.266-.792-1.216-.975.051-.183.687-.454 1.543-.222.431.118.811.338 1.042.603.144.166.191.309.174.373-.018.064-.131.163-.34.233z"/><path d="m53.24 30.565c-.815-.224-1.654-.216-2.362.02-.838.279-1.436.863-1.638 1.603-.387 1.417.763 2.925 2.618 3.432.395.108.796.162 1.185.162.413 0 .812-.061 1.177-.182.838-.279 1.436-.863 1.638-1.603.388-1.417-.762-2.925-2.618-3.432zm.349 3.137c-.333.11-.771.107-1.204-.011-.858-.235-1.266-.793-1.215-.976.017-.063.131-.163.339-.232.161-.053.347-.08.544-.08.211 0 .436.031.659.092.858.234 1.266.792 1.216.975-.016.063-.13.162-.339.232z"/><path d="m50.25 41.504c-1.854-.509-3.611.205-4 1.622-.387 1.417.763 2.924 2.618 3.432.404.111.804.164 1.186.164 1.37 0 2.511-.678 2.814-1.786.387-1.417-.763-2.925-2.618-3.432zm-.855 3.125c-.857-.235-1.265-.792-1.216-.975.051-.183.687-.454 1.543-.222.858.235 1.266.793 1.216.975-.05.184-.684.457-1.543.222z"/><path d="m47.259 52.442c-.813-.222-1.652-.215-2.362.021-.838.279-1.436.863-1.638 1.602-.387 1.417.763 2.925 2.618 3.432.395.108.796.162 1.185.162.413 0 .813-.061 1.177-.182.838-.279 1.436-.863 1.638-1.602.386-1.417-.763-2.925-2.618-3.433zm.348 3.137c-.333.11-.772.106-1.203-.012-.858-.234-1.266-.792-1.216-.975.017-.063.131-.163.339-.232.333-.109.772-.105 1.204.011.858.235 1.266.793 1.215.976-.016.063-.13.163-.339.232z"/></g></g></svg>