<?xml version="1.0" encoding="iso-8859-1"?>
<!-- Generator: Adobe Illustrator 19.0.0, SVG Export Plug-In . SVG Version: 6.00 Build 0)  -->
<svg version="1.1" id="Capa_1" xmlns="http://www.w3.org/2000/svg" xmlns:xlink="http://www.w3.org/1999/xlink" x="0px" y="0px"
	 viewBox="0 0 496 496" style="enable-background:new 0 0 496 496;" xml:space="preserve">
<path d="M393.704,13.824C391.664,5.68,384.384,0,376,0s-15.664,5.68-17.704,13.824L328,135.016V472c0,13.232,10.768,24,24,24h48
	c13.232,0,24-10.768,24-24V136L393.704,13.824z M344,384V144h64v240H344z M408,400v16h-64v-16H408z M346.248,128l8-32h43.504l8,32
	H346.248z M373.824,17.704c0.496-2.008,3.856-2.008,4.36,0L393.752,80h-35.504L373.824,17.704z M400,480h-48c-4.408,0-8-3.592-8-8
	v-40h64v40C408,476.408,404.408,480,400,480z"/>
<path d="M256,0h-32c-13.232,0-24,10.768-24,24v376h17.224l8,48H232v48h16v-48h6.776l8-48H280V24C280,10.768,269.232,0,256,0z
	 M224,16h32c4.408,0,8,3.592,8,8v40h-48V24C216,19.592,219.592,16,224,16z M241.224,432h-2.448l-5.336-32h13.112L241.224,432z
	 M216,384V80h48v304H216z"/>
<path d="M72,456c0,22.056,17.944,40,40,40s40-17.944,40-40V272H72V456z M136,288v16h-16v16h16v136c0,13.232-10.768,24-24,24
	s-24-10.768-24-24V320h16v-16H88v-16H136z"/>
<rect x="232" y="32" width="16" height="16"/>
<rect x="360" y="160" width="16" height="16"/>
<rect x="360" y="192" width="16" height="80"/>
<g>
	<rect x="88" y="320" style="fill:#F0BC5E;" width="48" height="32"/>
	<rect x="216" y="96" style="fill:#F0BC5E;" width="48" height="32"/>
	<rect x="344" y="336" style="fill:#F0BC5E;" width="64" height="32"/>
</g>
<g>
</g>
<g>
</g>
<g>
</g>
<g>
</g>
<g>
</g>
<g>
</g>
<g>
</g>
<g>
</g>
<g>
</g>
<g>
</g>
<g>
</g>
<g>
</g>
<g>
</g>
<g>
</g>
<g>
</g>
</svg>
