<svg height="496pt" viewBox="0 0 496 496" width="496pt" xmlns="http://www.w3.org/2000/svg"><g fill="#f0bc5e"><path d="m158.078125 281.359375-53.613281 53.617187c14.039062 23.121094 33.445312 42.519532 56.558594 56.558594l53.617187-53.613281c-26.144531-9.707031-46.855469-30.417969-56.5625-56.5625zm0 0"/><path d="m337.921875 281.359375c-9.707031 26.144531-30.417969 46.855469-56.5625 56.5625l53.617187 53.613281c23.121094-14.039062 42.519532-33.445312 56.558594-56.558594zm0 0"/><path d="m158.078125 214.640625c9.707031-26.144531 30.417969-46.855469 56.5625-56.5625l-53.617187-53.613281c-23.121094 14.039062-42.519532 33.445312-56.558594 56.558594zm0 0"/><path d="m334.976562 104.464844-53.617187 53.613281c26.144531 9.707031 46.855469 30.417969 56.5625 56.5625l53.613281-53.617187c-14.039062-23.113282-33.445312-42.519532-56.558594-56.558594zm0 0"/></g><path d="m248 144c-57.34375 0-104 46.65625-104 104s46.65625 104 104 104 104-46.65625 104-104-46.65625-104-104-104zm0 192c-48.519531 0-88-39.480469-88-88s39.480469-88 88-88 88 39.480469 88 88-39.480469 88-88 88zm0 0"/><path d="m496 248c0-22.769531-8.863281-44.175781-24.96875-60.289062l-69.007812-69.007813c.214843-6.414063-2.054688-12.894531-6.945313-17.792969-4.6875-4.679687-11.167969-6.886718-17.582031-6.734375l-69.207032-69.207031c-16.113281-16.105469-37.511718-24.96875-60.289062-24.96875s-44.175781 8.863281-60.28125 24.976562l-69.214844 69.207032c-6.425781-.160156-12.902344 2.054687-17.582031 6.746094-4.890625 4.886718-7.160156 11.367187-6.945313 17.78125l-69.007812 69.007812c-16.105469 16.105469-24.96875 37.511719-24.96875 60.28125s8.863281 44.175781 24.96875 60.289062l69.007812 69.007813c-.214843 6.414063 2.054688 12.894531 6.945313 17.792969 4.527344 4.527344 10.558594 7.023437 16.964844 7.023437.28125 0 .546875-.074219.824219-.082031l69 69c16.113281 16.105469 37.511718 24.96875 60.289062 24.96875s44.175781-8.863281 60.28125-24.976562l69.007812-69c.277344.007812.542969.082031.824219.082031 6.40625 0 12.4375-2.496094 16.964844-7.027344 4.890625-4.886719 7.160156-11.367187 6.945313-17.78125l69.007812-69.007813c16.105469-16.113281 24.96875-37.519531 24.96875-60.289062zm-112.230469-124.449219-5.847656 5.847657c-3.601563-3.933594-7.378906-7.710938-11.3125-11.308594l5.855469-5.851563c3.007812-3.015625 8.296875-3.023437 11.3125 0 3.101562 3.113281 3.101562 8.195313-.007813 11.3125zm-135.769531 284.449219c-88.222656 0-160-71.777344-160-160s71.777344-160 160-160 160 71.777344 160 160-71.777344 160-160 160zm-48.96875-371.710938c13.082031-13.089843 30.472656-20.289062 48.96875-20.289062s35.886719 7.199219 48.96875 20.289062l64.421875 64.421876c-.078125.082031-.175781.128906-.253906.210937l-6.898438 6.886719c-29.542969-22.449219-66.351562-35.808594-106.238281-35.808594s-76.703125 13.359375-106.246094 35.808594l-6.890625-6.886719c-.078125-.082031-.175781-.128906-.253906-.210937zm-86.800781 75.949219c3.027343-3.023437 8.304687-3.015625 11.3125 0l5.847656 5.851563c-3.933594 3.597656-7.710937 7.375-11.3125 11.308594l-5.847656-5.847657c-3.109375-3.117187-3.109375-8.199219 0-11.3125zm-75.949219 184.738281c-13.082031-13.089843-20.28125-30.480468-20.28125-48.976562s7.199219-35.886719 20.28125-48.976562l64.421875-64.421876c.082031.078126.136719.183594.21875.261719l6.886719 6.890625c-22.449219 29.542969-35.808594 66.359375-35.808594 106.246094s13.359375 76.703125 35.808594 106.246094l-6.886719 6.890625c-.082031.078125-.136719.175781-.21875.261719zm75.949219 75.472657 5.847656-5.847657c3.601563 3.933594 7.378906 7.710938 11.3125 11.308594l-5.855469 5.851563c-3.007812 3.015625-8.289062 3.015625-11.3125 0-3.101562-3.113281-3.101562-8.195313.007813-11.3125zm184.738281 87.261719c-13.082031 13.089843-30.472656 20.289062-48.96875 20.289062s-35.886719-7.199219-48.96875-20.289062l-64.421875-64.421876c.078125-.082031.175781-.128906.253906-.210937l6.898438-6.886719c29.542969 22.449219 66.351562 35.808594 106.238281 35.808594s76.703125-13.359375 106.246094-35.808594l6.890625 6.886719c.078125.082031.175781.136719.253906.210937zm86.800781-75.949219c-3.015625 3.03125-8.304687 3.03125-11.3125 0l-5.847656-5.851563c3.933594-3.597656 7.710937-7.375 11.3125-11.308594l5.847656 5.847657c3.109375 3.117187 3.109375 8.199219 0 11.3125zm11.527344-22.363281c-.082031-.078126-.136719-.183594-.21875-.261719l-6.886719-6.890625c22.449219-29.542969 35.808594-66.359375 35.808594-106.246094s-13.359375-76.703125-35.808594-106.246094l6.886719-6.890625c.082031-.078125.136719-.175781.21875-.261719l64.421875 64.421876c13.082031 13.089843 20.28125 30.480468 20.28125 48.976562s-7.199219 35.886719-20.28125 48.976562zm0 0"/></svg>