<svg 
 xmlns="http://www.w3.org/2000/svg"
 xmlns:xlink="http://www.w3.org/1999/xlink"
 width="129px" height="657px">
<path fill-rule="evenodd"  fill="rgb(248, 243, 233)"
 d="M127.196,389.650 C126.622,392.130 125.844,394.201 124.860,395.861 C123.876,397.522 122.718,398.772 121.386,399.613 C120.731,400.026 120.053,400.335 119.353,400.545 C120.508,400.681 121.540,400.957 122.431,401.396 C123.722,402.031 124.788,402.881 125.628,403.948 C126.468,405.014 127.083,406.264 127.473,407.699 C127.862,409.134 128.057,410.630 128.057,412.188 C128.057,413.541 127.913,414.822 127.626,416.032 C127.339,417.241 126.868,418.307 126.212,419.230 C125.556,420.152 124.726,420.890 123.722,421.443 C122.718,421.997 121.519,422.274 120.126,422.274 C118.405,422.274 116.898,421.935 115.607,421.259 C114.316,420.582 113.250,419.680 112.410,418.553 C111.570,417.425 110.944,416.144 110.535,414.710 C110.125,413.274 109.920,411.798 109.920,410.282 C109.920,408.888 110.074,407.596 110.382,406.408 C110.689,405.218 111.170,404.183 111.826,403.302 C112.481,402.420 113.302,401.724 114.285,401.211 C114.687,401.002 115.124,400.846 115.581,400.722 C113.520,400.340 111.854,399.170 110.597,397.184 C109.039,394.724 108.261,391.136 108.261,386.422 C109.859,386.422 111.406,386.330 112.902,386.145 C114.398,385.961 115.720,385.643 116.868,385.192 C118.015,384.740 118.927,384.147 119.603,383.409 C120.280,382.671 120.618,381.727 120.618,380.580 C120.618,377.914 119.470,375.876 117.175,374.461 C114.879,373.047 111.375,371.909 106.662,371.048 L98.608,369.388 L98.608,385.254 L90.001,383.470 L90.001,367.481 L33.748,355.551 C29.281,354.608 25.367,353.389 22.006,351.892 C18.645,350.395 15.745,348.715 13.306,346.850 C10.868,344.984 8.849,342.965 7.251,340.793 C5.652,338.619 4.382,336.385 3.439,334.090 C2.497,331.793 1.831,329.457 1.441,327.079 C1.052,324.702 0.857,322.385 0.857,320.130 C0.857,319.515 0.888,318.839 0.949,318.101 C1.011,317.363 1.093,316.646 1.195,315.949 C1.298,315.252 1.410,314.596 1.533,313.981 C1.656,313.366 1.779,312.854 1.902,312.443 L9.218,313.981 C9.013,314.678 8.809,315.580 8.603,316.687 C8.399,317.793 8.296,318.819 8.296,319.761 C8.296,321.812 8.644,323.626 9.341,325.204 C10.038,326.782 11.216,328.197 12.876,329.447 C14.536,330.697 16.760,331.824 19.546,332.829 C22.334,333.833 25.817,334.766 29.998,335.627 L90.001,348.357 L90.001,336.918 L95.965,338.148 L98.608,350.263 L103.281,351.247 C107.420,352.231 111.037,353.542 114.132,355.182 C117.226,356.822 119.808,358.851 121.878,361.270 C123.947,363.689 125.495,366.528 126.520,369.788 C127.544,373.047 128.057,376.808 128.057,381.072 C128.057,384.310 127.770,387.169 127.196,389.650 ZM127.626,320.592 C127.339,321.800 126.868,322.867 126.212,323.789 C125.556,324.712 124.726,325.450 123.722,326.003 C122.718,326.557 121.519,326.833 120.126,326.833 C118.405,326.833 116.898,326.495 115.607,325.819 C114.316,325.142 113.250,324.240 112.410,323.113 C111.570,321.985 110.944,320.704 110.535,319.269 C110.125,317.834 109.920,316.358 109.920,314.842 C109.920,313.448 110.074,312.156 110.382,310.968 C110.689,309.778 111.170,308.743 111.826,307.862 C112.481,306.980 113.302,306.283 114.285,305.771 C115.269,305.258 116.416,305.003 117.728,305.003 C119.573,305.003 121.140,305.320 122.431,305.956 C123.722,306.591 124.788,307.441 125.628,308.508 C126.468,309.573 127.083,310.823 127.473,312.259 C127.862,313.694 128.057,315.190 128.057,316.748 C128.057,318.101 127.913,319.382 127.626,320.592 ZM40.634,321.114 C41.126,322.221 41.842,323.491 42.785,324.927 L38.543,327.940 C37.477,326.956 36.422,325.828 35.377,324.558 C34.332,323.287 33.399,321.852 32.580,320.253 C31.760,318.654 31.104,316.902 30.613,314.995 C30.121,313.089 29.875,310.988 29.875,308.692 C29.875,303.854 31.012,300.144 33.287,297.562 C35.562,294.979 38.728,293.687 42.785,293.687 C44.589,293.687 46.740,293.851 49.241,294.179 C51.740,294.507 54.589,295.019 57.786,295.717 L81.210,300.636 C81.742,300.759 82.295,300.872 82.870,300.975 C83.443,301.076 83.986,301.169 84.499,301.251 C85.011,301.333 85.452,301.395 85.821,301.436 C86.190,301.476 86.456,301.497 86.620,301.497 C87.767,301.497 88.689,301.374 89.387,301.128 C90.083,300.882 90.616,300.492 90.985,299.960 C91.354,299.427 91.600,298.740 91.723,297.900 C91.846,297.059 91.907,296.044 91.907,294.856 L91.907,292.581 L98.608,293.687 L98.608,323.574 L57.663,314.842 C55.368,314.350 53.226,313.940 51.239,313.612 C49.250,313.283 47.375,313.120 45.613,313.120 C43.769,313.120 42.355,313.498 41.371,314.258 C40.388,315.016 39.896,316.092 39.896,317.486 C39.896,318.798 40.142,320.007 40.634,321.114 ZM55.542,268.259 C54.415,268.033 53.237,267.818 52.007,267.614 C50.778,267.408 49.568,267.234 48.380,267.091 C47.191,266.947 46.207,266.876 45.429,266.876 C43.462,266.876 42.027,267.326 41.126,268.229 C40.224,269.130 39.773,270.155 39.773,271.303 C39.773,272.369 40.059,273.548 40.634,274.839 C41.207,276.131 41.802,277.288 42.417,278.314 L37.498,281.081 C36.596,279.974 35.694,278.723 34.793,277.330 C33.891,275.936 33.072,274.409 32.334,272.748 C31.596,271.088 31.003,269.294 30.551,267.368 C30.101,265.440 29.875,263.391 29.875,261.218 C29.875,259.373 30.090,257.692 30.520,256.175 C30.951,254.658 31.575,253.356 32.396,252.271 C33.215,251.184 34.250,250.343 35.500,249.749 C36.750,249.154 38.215,248.858 39.896,248.858 C40.674,248.858 41.371,248.878 41.986,248.919 C42.601,248.959 43.205,249.011 43.800,249.073 C44.394,249.134 45.029,249.216 45.706,249.319 C46.382,249.421 47.171,249.554 48.073,249.719 L48.073,248.981 C44.834,247.422 42.068,245.783 39.773,244.061 C37.477,242.339 35.592,240.504 34.117,238.557 C32.641,236.610 31.566,234.519 30.889,232.285 C30.213,230.050 29.875,227.642 29.875,225.059 C29.875,221.820 30.490,219.042 31.719,216.726 C32.949,214.410 34.609,212.503 36.699,211.007 C38.789,209.510 41.227,208.414 44.015,207.717 C46.802,207.020 49.753,206.672 52.868,206.672 C56.147,206.672 59.579,207.051 63.166,207.810 C66.752,208.568 70.287,209.695 73.771,211.192 C77.254,212.688 80.574,214.533 83.730,216.726 C86.886,218.919 89.653,221.451 92.030,224.321 C94.407,227.190 96.303,230.378 97.717,233.884 C99.131,237.389 99.838,241.211 99.838,245.352 C99.838,247.812 99.571,250.108 99.039,252.240 C98.506,254.371 97.768,256.257 96.825,257.897 C97.358,258.020 97.983,258.143 98.701,258.266 C99.417,258.389 100.135,258.522 100.852,258.666 C101.569,258.809 102.245,258.952 102.881,259.097 C103.516,259.240 104.018,259.352 104.387,259.435 L109.429,260.542 C109.961,260.665 110.514,260.788 111.089,260.911 C111.662,261.034 112.205,261.135 112.718,261.218 C113.230,261.300 113.671,261.361 114.040,261.403 C114.408,261.443 114.675,261.464 114.839,261.464 C115.986,261.464 116.908,261.341 117.605,261.095 C118.302,260.849 118.835,260.459 119.204,259.927 C119.573,259.393 119.819,258.697 119.942,257.836 C120.064,256.975 120.126,255.950 120.126,254.761 L120.126,251.871 L126.766,253.039 L126.766,283.356 L58.155,268.782 C57.540,268.659 56.669,268.484 55.542,268.259 ZM88.280,256.052 C89.427,255.150 90.298,253.920 90.893,252.363 C91.486,250.804 91.784,249.267 91.784,247.751 C91.784,245.373 91.139,243.179 89.848,241.171 C88.557,239.162 86.855,237.347 84.745,235.728 C82.633,234.108 80.216,232.674 77.490,231.424 C74.764,230.173 71.957,229.138 69.068,228.318 C66.178,227.498 63.309,226.873 60.461,226.443 C57.611,226.012 55.040,225.797 52.745,225.797 C50.368,225.797 48.359,225.971 46.720,226.320 C45.080,226.667 43.759,227.139 42.755,227.734 C41.750,228.328 41.023,229.046 40.572,229.886 C40.121,230.726 39.896,231.639 39.896,232.623 C39.896,234.468 40.695,236.364 42.294,238.311 C43.892,240.258 45.982,242.093 48.564,243.815 C51.147,245.537 54.076,247.084 57.356,248.458 C60.635,249.831 63.975,250.887 67.377,251.625 L88.280,256.052 ZM114.347,129.803 C114.347,128.450 114.255,127.138 114.070,125.868 C113.886,124.596 113.527,123.428 112.994,122.362 C112.461,121.296 111.682,120.384 110.658,119.626 C109.633,118.867 108.301,118.304 106.662,117.935 L44.937,105.021 C44.486,104.856 43.974,104.723 43.400,104.621 C42.826,104.518 42.375,104.467 42.048,104.467 C41.146,104.467 40.419,104.692 39.865,105.144 C39.312,105.594 38.882,106.220 38.574,107.019 C38.267,107.819 38.061,108.782 37.959,109.910 C37.857,111.037 37.806,112.256 37.806,113.569 L37.806,115.167 L31.104,113.815 L31.104,70.891 L37.806,72.244 L37.806,73.904 C37.806,75.257 37.887,76.569 38.052,77.840 C38.215,79.110 38.574,80.269 39.127,81.314 C39.681,82.360 40.449,83.272 41.433,84.051 C42.417,84.829 43.748,85.383 45.429,85.711 L108.568,99.056 L31.104,57.362 L31.104,48.691 L108.568,38.483 L45.982,25.139 C45.039,24.933 44.230,24.779 43.554,24.678 C42.878,24.575 42.375,24.524 42.048,24.524 C41.146,24.524 40.419,24.749 39.865,25.200 C39.312,25.651 38.882,26.286 38.574,27.107 C38.267,27.926 38.061,28.900 37.959,30.028 C37.857,31.155 37.806,32.374 37.806,33.687 L37.806,34.117 L31.104,32.703 L31.104,0.971 L37.806,2.324 L37.806,3.984 C37.806,5.296 37.887,6.577 38.052,7.828 C38.215,9.078 38.564,10.216 39.097,11.241 C39.629,12.265 40.388,13.157 41.371,13.916 C42.355,14.674 43.666,15.217 45.306,15.545 L105.740,28.398 C107.912,28.930 109.346,29.197 110.043,29.197 C110.944,29.197 111.682,28.972 112.257,28.521 C112.830,28.069 113.271,27.445 113.578,26.645 C113.886,25.846 114.090,24.882 114.193,23.755 C114.295,22.627 114.347,21.408 114.347,20.096 L114.347,18.497 L120.987,19.850 L120.987,54.964 L59.815,63.450 L120.987,96.411 L120.987,132.816 L114.347,131.464 L114.347,129.803 ZM36.422,136.260 C38.615,133.923 41.371,132.099 44.691,130.787 C48.011,129.475 51.884,128.819 56.311,128.819 C59.466,128.819 62.725,129.188 66.086,129.926 C69.446,130.664 72.746,131.781 75.984,133.278 C79.221,134.774 82.286,136.649 85.175,138.904 C88.065,141.159 90.595,143.814 92.768,146.868 C94.940,149.922 96.661,153.387 97.932,157.261 C99.202,161.135 99.838,165.429 99.838,170.144 C99.838,173.751 99.336,177.154 98.332,180.352 C97.327,183.550 95.759,186.337 93.629,188.715 C91.497,191.093 88.761,192.979 85.421,194.373 C82.080,195.766 78.074,196.464 73.402,196.464 C70.368,196.464 67.193,196.115 63.873,195.418 C60.553,194.721 57.284,193.645 54.067,192.190 C50.849,190.734 47.775,188.889 44.845,186.655 C41.914,184.420 39.343,181.787 37.129,178.753 C34.916,175.719 33.153,172.275 31.842,168.422 C30.531,164.568 29.875,160.263 29.875,155.508 C29.875,151.572 30.419,147.964 31.504,144.685 C32.590,141.405 34.229,138.597 36.422,136.260 ZM40.849,163.902 C42.140,165.726 43.840,167.366 45.952,168.822 C48.062,170.277 50.470,171.537 53.175,172.604 C55.880,173.669 58.667,174.541 61.537,175.217 C64.405,175.894 67.223,176.406 69.990,176.755 C72.756,177.103 75.246,177.277 77.460,177.277 C82.418,177.277 85.984,176.426 88.157,174.725 C90.329,173.024 91.415,170.697 91.415,167.746 C91.415,165.614 90.801,163.646 89.571,161.842 C88.341,160.038 86.702,158.408 84.653,156.953 C82.603,155.498 80.257,154.217 77.613,153.110 C74.970,152.003 72.234,151.070 69.406,150.312 C66.578,149.553 63.759,148.990 60.952,148.621 C58.145,148.252 55.573,148.067 53.237,148.067 C48.113,148.067 44.445,148.928 42.232,150.650 C40.019,152.372 38.912,154.749 38.912,157.783 C38.912,160.038 39.558,162.078 40.849,163.902 ZM98.608,389.128 L98.608,419.014 L57.663,410.282 C55.368,409.790 53.226,409.380 51.239,409.052 C49.250,408.723 47.375,408.560 45.613,408.560 C43.769,408.560 42.355,408.939 41.371,409.698 C40.388,410.456 39.896,411.532 39.896,412.926 C39.896,414.238 40.142,415.448 40.634,416.554 C41.126,417.661 41.842,418.932 42.785,420.367 L38.543,423.380 C37.477,422.397 36.422,421.268 35.377,419.998 C34.332,418.727 33.399,417.292 32.580,415.694 C31.760,414.095 31.104,412.342 30.613,410.436 C30.121,408.529 29.875,406.428 29.875,404.132 C29.875,399.295 31.012,395.585 33.287,393.002 C35.562,390.419 38.728,389.128 42.785,389.128 C44.589,389.128 46.740,389.291 49.241,389.620 C51.740,389.947 54.589,390.459 57.786,391.157 L81.210,396.077 C81.742,396.200 82.295,396.312 82.870,396.415 C83.443,396.517 83.986,396.609 84.499,396.692 C85.011,396.773 85.452,396.835 85.821,396.876 C86.190,396.916 86.456,396.938 86.620,396.938 C87.767,396.938 88.689,396.815 89.387,396.569 C90.083,396.323 90.616,395.933 90.985,395.400 C91.354,394.867 91.600,394.180 91.723,393.340 C91.846,392.499 91.907,391.485 91.907,390.296 L91.907,388.021 L98.608,389.128 ZM28.492,469.256 C29.455,469.460 30.511,469.686 31.658,469.932 C32.805,470.178 34.004,470.434 35.254,470.701 C36.504,470.967 37.744,471.224 38.974,471.470 C41.842,472.084 44.876,472.761 48.073,473.499 L48.073,472.761 C45.326,471.325 42.836,469.850 40.603,468.333 C38.369,466.816 36.453,465.125 34.855,463.260 C33.256,461.394 32.027,459.252 31.166,456.834 C30.305,454.414 29.875,451.586 29.875,448.347 C29.875,445.682 30.367,443.253 31.350,441.060 C32.334,438.867 33.788,436.991 35.715,435.433 C37.641,433.875 40.039,432.656 42.908,431.775 C45.777,430.892 49.097,430.452 52.868,430.452 C56.147,430.452 59.579,430.852 63.166,431.652 C66.752,432.451 70.287,433.609 73.771,435.126 C77.254,436.642 80.574,438.518 83.730,440.753 C86.886,442.987 89.653,445.539 92.030,448.409 C94.407,451.278 96.303,454.445 97.717,457.910 C99.131,461.374 99.838,465.114 99.838,469.133 C99.838,470.978 99.715,472.781 99.469,474.544 C99.223,476.307 98.905,477.988 98.516,479.587 C98.126,481.186 97.686,482.662 97.194,484.015 C96.702,485.367 96.211,486.576 95.719,487.643 L99.838,495.084 L99.838,501.356 L18.255,484.076 C17.190,483.830 16.063,483.624 14.874,483.461 C13.686,483.297 12.682,483.215 11.862,483.215 C10.346,483.215 9.249,483.727 8.572,484.752 C7.896,485.777 7.558,487.499 7.558,489.918 L7.558,494.653 L0.857,493.546 L0.857,463.721 L26.063,468.764 C26.719,468.887 27.529,469.050 28.492,469.256 ZM54.651,470.947 C56.700,471.910 58.821,472.771 61.014,473.530 C63.206,474.288 65.368,474.872 67.500,475.282 L88.280,479.833 C89.222,479.258 90.042,478.254 90.739,476.820 C91.435,475.384 91.784,473.662 91.784,471.654 C91.784,469.153 91.128,466.878 89.817,464.828 C88.505,462.778 86.774,460.933 84.622,459.294 C82.470,457.653 80.021,456.228 77.275,455.020 C74.529,453.810 71.731,452.806 68.883,452.006 C66.034,451.207 63.247,450.602 60.522,450.192 C57.796,449.782 55.368,449.577 53.237,449.577 C50.818,449.577 48.769,449.751 47.089,450.100 C45.408,450.448 44.035,450.920 42.970,451.514 C41.904,452.108 41.126,452.826 40.634,453.667 C40.142,454.507 39.896,455.419 39.896,456.403 C39.896,457.674 40.274,458.955 41.033,460.247 C41.791,461.538 42.836,462.819 44.169,464.090 C45.500,465.360 47.068,466.581 48.872,467.749 C50.675,468.917 52.601,469.983 54.651,470.947 ZM30.828,561.345 C31.463,559.479 32.323,557.972 33.410,556.825 C34.495,555.676 35.766,554.857 37.222,554.365 C38.676,553.873 40.244,553.627 41.925,553.627 C42.294,553.627 42.724,553.647 43.216,553.688 C43.708,553.729 44.220,553.781 44.753,553.842 C45.285,553.904 45.787,553.965 46.259,554.027 C46.730,554.088 47.129,554.159 47.458,554.242 L47.458,553.196 C44.834,551.352 42.457,549.537 40.326,547.754 C38.195,545.971 36.361,544.074 34.824,542.066 C33.287,540.057 32.098,537.884 31.258,535.547 C30.419,533.211 29.998,530.545 29.998,527.553 C29.998,524.847 30.377,522.572 31.135,520.727 C31.893,518.882 32.908,517.406 34.178,516.299 C35.448,515.192 36.934,514.393 38.636,513.901 C40.336,513.409 42.109,513.163 43.954,513.163 C46.044,513.163 48.339,513.409 50.839,513.901 C53.339,514.393 55.655,514.864 57.786,515.315 L79.980,519.866 C81.702,520.194 83.259,520.460 84.653,520.666 C86.046,520.870 87.091,520.973 87.788,520.973 C89.468,520.973 90.575,520.460 91.108,519.436 C91.640,518.410 91.907,516.709 91.907,514.332 L91.907,512.056 L98.608,513.163 L98.608,543.419 L60.922,535.117 C59.938,534.871 58.831,534.625 57.602,534.379 C56.372,534.133 55.143,533.907 53.913,533.702 C52.684,533.497 51.515,533.323 50.409,533.180 C49.302,533.036 48.359,532.965 47.581,532.965 C45.736,532.965 44.271,533.354 43.185,534.133 C42.099,534.911 41.556,536.326 41.556,538.376 C41.556,540.221 42.386,542.117 44.046,544.064 C45.706,546.011 47.857,547.877 50.501,549.660 C53.145,551.444 56.096,553.032 59.354,554.426 C62.612,555.820 65.819,556.886 68.975,557.624 L98.608,564.327 L98.608,583.083 L57.663,574.535 C55.368,574.002 53.226,573.571 51.239,573.244 C49.250,572.915 47.375,572.752 45.613,572.752 C43.769,572.752 42.355,573.130 41.371,573.889 C40.388,574.648 39.896,575.744 39.896,577.179 C39.896,578.491 40.142,579.690 40.634,580.777 C41.126,581.863 41.842,583.123 42.785,584.559 L38.543,587.634 C37.477,586.608 36.422,585.460 35.377,584.190 C34.332,582.919 33.399,581.494 32.580,579.916 C31.760,578.337 31.104,576.585 30.613,574.658 C30.121,572.731 29.875,570.620 29.875,568.324 C29.875,565.536 30.193,563.210 30.828,561.345 ZM31.473,611.863 C32.539,608.459 34.148,605.477 36.299,602.915 C38.451,600.353 41.156,598.334 44.415,596.858 C47.673,595.382 51.494,594.644 55.880,594.644 C58.995,594.644 62.253,595.053 65.656,595.874 C69.057,596.694 72.388,597.913 75.646,599.533 C78.904,601.152 81.998,603.161 84.929,605.559 C87.859,607.958 90.432,610.735 92.645,613.892 C94.858,617.048 96.610,620.584 97.901,624.500 C99.192,628.414 99.838,632.688 99.838,637.322 C99.838,643.348 98.536,648.022 95.934,651.342 C93.331,654.663 89.694,656.324 85.021,656.324 C81.619,656.324 78.361,655.380 75.246,653.495 C72.131,651.609 69.395,649.006 67.039,645.685 C64.682,642.364 62.806,638.407 61.414,633.816 C60.020,629.224 59.323,624.223 59.323,618.812 C59.323,618.114 59.323,617.356 59.323,616.536 C59.323,615.716 59.364,614.916 59.446,614.138 C58.626,614.015 57.796,613.943 56.956,613.923 C56.116,613.902 55.347,613.892 54.651,613.892 C49.773,613.892 46.013,615.030 43.370,617.305 C40.726,619.580 39.404,623.013 39.404,627.605 C39.404,629.655 39.701,631.603 40.296,633.447 C40.889,635.292 41.668,637.004 42.632,638.582 C43.594,640.160 44.681,641.574 45.890,642.825 C47.099,644.075 48.339,645.152 49.610,646.054 C48.995,646.546 48.205,646.935 47.243,647.222 C46.279,647.509 45.265,647.653 44.199,647.653 C42.683,647.653 41.084,647.161 39.404,646.177 C37.723,645.193 36.176,643.686 34.762,641.657 C33.348,639.628 32.180,637.045 31.258,633.909 C30.336,630.772 29.875,627.052 29.875,622.747 C29.875,618.893 30.408,615.265 31.473,611.863 ZM66.639,616.167 C66.639,619.282 67.049,622.183 67.869,624.869 C68.688,627.554 69.867,629.890 71.404,631.879 C72.941,633.867 74.775,635.425 76.906,636.553 C79.037,637.680 81.435,638.244 84.099,638.244 C86.681,638.244 88.689,637.700 90.124,636.614 C91.558,635.528 92.276,634.001 92.276,632.033 C92.276,629.983 91.508,628.036 89.971,626.191 C88.434,624.346 86.436,622.686 83.976,621.210 C81.517,619.734 78.760,618.463 75.707,617.397 C72.654,616.331 69.631,615.552 66.639,615.060 L66.639,616.167 Z"/>
</svg>