<svg xmlns="http://www.w3.org/2000/svg" viewBox="0 0 464.52 538.58"><defs><style>.cls-1{fill:#1f1f1f;}</style></defs><g id="Слой_2" data-name="Слой 2"><g id="Слой_1-2" data-name="Слой 1"><path class="cls-1" d="M142.3,204.46C147,103.89,175.67,6.59,225.2,6.59c51.81,0,80.85,106.46,83.39,211.76l31-31.33a480,480,0,0,0-6.26-48.88c-5.27-28.75-13.08-53.9-23.2-74.74-9.87-20.25-22.17-36.16-36.57-47.3C259.48,5.27,243.73,0,225.4,0s-34.12,5.27-48.16,16.11c-14.44,11.17-26.81,27.1-36.76,47.33-10.23,20.82-18.09,46-23.37,74.7-1.85,10.07-3.37,20.53-4.59,31.29Z"/><path class="cls-1" d="M306.9,281.75c-7.23,93.34-35.36,178.52-81.7,178.52-43.91,0-71.46-76.44-80.39-163.85l-35.36-41.37a505.83,505.83,0,0,0,7.66,73.67c5.28,28.75,13.14,53.89,23.37,74.7,10,20.25,22.32,36.17,36.76,47.31,14,10.86,29.79,16.14,48.16,16.14s34.08-5.28,48.11-16.13c14.4-11.11,26.7-27,36.57-47.29,10.12-20.82,17.93-46,23.2-74.73a517,517,0,0,0,7.91-81.85Z"/><path class="cls-1" d="M464.22,354.11H388.06V347.4a119.36,119.36,0,0,1,11.81-5.15,104,104,0,0,1,12.43-3.64l1.5-183.75h-2.41L217.82,351.7H211.1L43.38,155.45H40.65l.32,182a82.34,82.34,0,0,1,12.72,3.94,111.69,111.69,0,0,1,13,6v6.71H0V347.4q4.85-2.41,12-5.75a57.31,57.31,0,0,1,13.49-4.54V157.49a122.67,122.67,0,0,1-12.87-3.33,47.94,47.94,0,0,1-12-5.45V142H70.68L224.76,323.29,403.82,142h60.7v6.7a74.68,74.68,0,0,1-11,5.31,73.3,73.3,0,0,1-12,3.47V338.92a64.11,64.11,0,0,1,12.28,3.64,114.35,114.35,0,0,1,10.46,4.84Z"/><path class="cls-1" d="M339.56,507a173.32,173.32,0,0,1-39.12,5A283.8,283.8,0,0,1,262,509.72c-12.43-1.62-25-3.77-37.24-6.39s-24.77-5-36.76-7.11c-12.2-2.11-24.66-3.62-37-4.51a245.9,245.9,0,0,0-43.06,1.19l-1,1.56c25.87,1,48.26,10.87,69.95,20.48,21.09,9.33,43,20,68,23,23.13,2.7,58.16-1.81,96.15-28.91Z"/></g></g></svg>