<svg 
 xmlns="http://www.w3.org/2000/svg"
 xmlns:xlink="http://www.w3.org/1999/xlink"
 width="121px" height="893px">
<path fill-rule="evenodd"  fill="#EBE6DD"
 d="M119.419,69.231 C118.374,73.207 116.816,76.579 114.747,79.347 C112.676,82.114 110.115,84.245 107.062,85.742 C104.008,87.238 100.473,87.987 96.457,87.987 C94.325,87.987 92.070,87.781 89.694,87.372 C87.316,86.961 84.980,86.234 82.685,85.189 C80.389,84.143 78.207,82.698 76.138,80.853 C74.068,79.008 72.243,76.661 70.666,73.812 C69.088,70.962 67.828,67.540 66.885,63.542 C65.942,59.545 65.471,54.841 65.471,49.429 L65.471,39.898 L44.937,35.347 C44.486,35.224 43.974,35.111 43.400,35.009 C42.826,34.906 42.375,34.855 42.048,34.855 C41.146,34.855 40.419,35.080 39.865,35.531 C39.312,35.982 38.882,36.617 38.574,37.438 C38.267,38.257 38.061,39.231 37.959,40.359 C37.857,41.486 37.806,42.705 37.806,44.018 L37.806,48.199 L31.104,46.785 L31.104,0.971 L37.806,2.324 L37.806,3.984 C37.806,5.296 37.887,6.577 38.052,7.828 C38.215,9.078 38.564,10.216 39.097,11.241 C39.629,12.265 40.388,13.157 41.371,13.916 C42.355,14.674 43.666,15.217 45.306,15.545 L105.740,28.398 C107.912,28.930 109.346,29.197 110.043,29.197 C110.944,29.197 111.682,28.972 112.257,28.521 C112.830,28.069 113.271,27.445 113.578,26.645 C113.886,25.846 114.090,24.882 114.193,23.755 C114.295,22.627 114.347,21.408 114.347,20.096 L114.347,18.497 L120.987,19.850 L120.987,55.886 C120.987,60.806 120.464,65.254 119.419,69.231 ZM113.548,50.229 L72.787,41.373 L72.787,46.662 C72.787,50.475 73.361,53.703 74.509,56.347 C75.656,58.992 77.265,61.133 79.335,62.774 C81.404,64.413 83.863,65.602 86.712,66.340 C89.560,67.078 92.685,67.447 96.088,67.447 C99.243,67.447 101.928,67.088 104.141,66.371 C106.355,65.653 108.158,64.659 109.552,63.389 C110.944,62.117 111.959,60.591 112.595,58.807 C113.230,57.024 113.548,55.087 113.548,52.996 L113.548,50.229 ZM36.299,100.685 C38.451,98.123 41.156,96.104 44.415,94.628 C47.673,93.152 51.494,92.414 55.880,92.414 C58.995,92.414 62.253,92.824 65.656,93.644 C69.057,94.464 72.388,95.683 75.646,97.303 C78.904,98.922 81.998,100.931 84.929,103.330 C87.859,105.728 90.432,108.505 92.645,111.662 C94.858,114.819 96.610,118.355 97.901,122.270 C99.192,126.185 99.838,130.459 99.838,135.092 C99.838,141.118 98.536,145.792 95.934,149.113 C93.331,152.433 89.694,154.094 85.021,154.094 C81.619,154.094 78.361,153.150 75.246,151.265 C72.131,149.379 69.395,146.776 67.039,143.455 C64.682,140.134 62.806,136.178 61.414,131.587 C60.020,126.995 59.323,121.993 59.323,116.582 C59.323,115.884 59.323,115.126 59.323,114.306 C59.323,113.486 59.364,112.686 59.446,111.908 C58.626,111.785 57.796,111.713 56.956,111.693 C56.116,111.672 55.347,111.662 54.651,111.662 C49.773,111.662 46.013,112.800 43.370,115.075 C40.726,117.350 39.404,120.784 39.404,125.376 C39.404,127.425 39.701,129.373 40.296,131.218 C40.889,133.062 41.668,134.774 42.632,136.352 C43.594,137.930 44.681,139.345 45.890,140.596 C47.099,141.846 48.339,142.922 49.610,143.824 C48.995,144.316 48.205,144.705 47.243,144.993 C46.279,145.279 45.265,145.423 44.199,145.423 C42.683,145.423 41.084,144.931 39.404,143.947 C37.723,142.963 36.176,141.457 34.762,139.427 C33.348,137.398 32.180,134.815 31.258,131.679 C30.336,128.543 29.875,124.822 29.875,120.517 C29.875,116.663 30.408,113.035 31.473,109.633 C32.539,106.230 34.148,103.247 36.299,100.685 ZM66.639,113.938 C66.639,117.053 67.049,119.953 67.869,122.639 C68.688,125.324 69.867,127.661 71.404,129.649 C72.941,131.638 74.775,133.195 76.906,134.323 C79.037,135.450 81.435,136.014 84.099,136.014 C86.681,136.014 88.689,135.470 90.124,134.385 C91.558,133.298 92.276,131.771 92.276,129.803 C92.276,127.753 91.508,125.806 89.971,123.961 C88.434,122.116 86.436,120.456 83.976,118.980 C81.517,117.504 78.760,116.233 75.707,115.167 C72.654,114.101 69.631,113.323 66.639,112.831 L66.639,113.938 ZM90.462,227.058 C91.425,225.725 91.907,223.829 91.907,221.369 L91.907,220.139 L98.608,221.677 L98.608,246.336 L65.963,254.638 C64.323,255.047 62.407,255.478 60.215,255.930 C58.022,256.380 55.829,256.811 53.637,257.221 C51.443,257.630 49.394,257.979 47.489,258.266 C45.583,258.553 44.117,258.737 43.093,258.820 L43.093,259.189 C46.453,261.689 49.834,264.047 53.237,266.261 C56.638,268.474 59.948,270.412 63.166,272.072 C66.383,273.732 69.446,275.044 72.357,276.008 C75.267,276.970 77.930,277.453 80.349,277.453 C83.177,277.453 85.329,276.766 86.804,275.393 C88.280,274.019 89.018,272.103 89.018,269.643 C90.656,269.643 92.142,269.898 93.475,270.412 C94.806,270.924 95.944,271.631 96.887,272.533 C97.829,273.434 98.556,274.501 99.069,275.731 C99.581,276.961 99.838,278.293 99.838,279.728 C99.838,283.130 98.895,285.703 97.010,287.446 C95.124,289.188 92.501,290.059 89.141,290.059 C85.861,290.059 82.398,289.506 78.751,288.399 C75.102,287.292 71.229,285.713 67.131,283.664 C63.032,281.613 58.687,279.123 54.098,276.192 C49.507,273.261 44.650,269.950 39.527,266.261 C35.264,263.226 31.350,260.377 27.785,257.713 C24.219,255.047 21.002,252.434 18.132,249.872 C15.264,247.310 12.753,244.707 10.601,242.062 C8.449,239.418 6.646,236.610 5.191,233.638 C3.737,230.665 2.650,227.427 1.933,223.921 C1.216,220.416 0.857,216.511 0.857,212.207 C0.857,209.788 1.062,207.441 1.472,205.165 C1.882,202.890 2.435,200.871 3.132,199.108 L10.202,201.014 C9.874,201.998 9.516,203.382 9.126,205.165 C8.737,206.949 8.542,209.132 8.542,211.715 C8.542,215.569 9.055,219.094 10.079,222.292 C11.104,225.489 12.487,228.451 14.229,231.178 C15.971,233.904 18.009,236.466 20.346,238.865 C22.682,241.263 25.182,243.589 27.846,245.844 L85.267,230.102 C87.767,229.404 89.499,228.389 90.462,227.058 ZM33.287,347.803 C35.562,345.220 38.728,343.929 42.785,343.929 C44.589,343.929 46.740,344.072 49.241,344.359 C51.740,344.646 54.589,345.179 57.786,345.958 L80.841,351.247 C81.291,351.328 81.926,351.462 82.747,351.647 C83.566,351.831 84.447,352.036 85.390,352.261 C86.333,352.486 87.286,352.702 88.249,352.907 C89.212,353.112 90.063,353.276 90.801,353.399 C90.882,353.070 90.985,352.466 91.108,351.585 C91.231,350.703 91.292,349.914 91.292,349.217 C91.292,347.085 90.974,345.210 90.339,343.591 C89.704,341.971 88.403,340.424 86.436,338.948 C84.468,337.472 81.671,335.955 78.044,334.397 C74.416,332.839 69.631,331.055 63.688,329.047 C57.458,326.956 52.212,325.019 47.950,323.236 C43.687,321.452 40.244,319.638 37.621,317.793 C34.998,315.949 33.112,313.960 31.965,311.828 C30.818,309.696 30.244,307.257 30.244,304.511 C30.244,301.190 30.951,298.617 32.365,296.793 C33.779,294.968 35.961,294.056 38.912,294.056 C40.511,294.056 41.883,294.312 43.031,294.825 C44.178,295.337 45.111,295.983 45.829,296.762 C46.545,297.540 47.078,298.392 47.427,299.314 C47.775,300.237 47.950,301.128 47.950,301.989 C47.294,301.989 46.617,302.091 45.921,302.297 C45.223,302.501 44.589,302.809 44.015,303.219 C43.441,303.629 42.970,304.142 42.601,304.757 C42.232,305.372 42.048,306.088 42.048,306.909 C42.048,308.097 42.334,309.194 42.908,310.199 C43.482,311.203 44.630,312.248 46.351,313.335 C48.073,314.421 50.491,315.631 53.606,316.963 C56.720,318.295 60.799,319.905 65.840,321.791 C69.856,323.307 73.494,324.681 76.753,325.911 C80.011,327.141 82.890,328.349 85.390,329.539 C87.890,330.728 90.052,331.958 91.876,333.229 C93.700,334.499 95.206,335.935 96.395,337.533 C97.583,339.132 98.455,340.946 99.008,342.976 C99.561,345.005 99.838,347.373 99.838,350.078 C99.838,351.964 99.786,353.922 99.684,355.951 C99.581,357.980 99.428,360.010 99.223,362.039 C99.018,364.068 98.762,366.057 98.455,368.004 C98.147,369.951 97.809,371.786 97.440,373.508 L57.663,365.083 C55.368,364.591 53.226,364.170 51.239,363.823 C49.250,363.474 47.375,363.300 45.613,363.300 C43.769,363.300 42.355,363.689 41.371,364.468 C40.388,365.247 39.896,366.333 39.896,367.727 C39.896,369.039 40.142,370.249 40.634,371.356 C41.126,372.463 41.842,373.733 42.785,375.168 L38.543,378.182 C37.477,377.198 36.422,376.070 35.377,374.799 C34.332,373.528 33.399,372.094 32.580,370.495 C31.760,368.896 31.104,367.143 30.613,365.237 C30.121,363.331 29.875,361.229 29.875,358.934 C29.875,354.096 31.012,350.386 33.287,347.803 ZM34.578,396.692 C37.713,391.935 42.518,389.558 48.995,389.558 C51.003,389.558 52.939,389.691 54.805,389.958 C56.669,390.224 58.421,390.542 60.061,390.911 L79.980,395.216 C81.702,395.585 83.259,395.861 84.653,396.046 C86.046,396.230 87.091,396.323 87.788,396.323 C89.468,396.323 90.575,395.810 91.108,394.785 C91.640,393.760 91.907,392.058 91.907,389.681 L91.907,387.406 L98.608,388.759 L98.608,418.092 L70.021,411.942 C70.225,414.525 70.379,416.923 70.482,419.137 C70.584,421.351 70.635,423.113 70.635,424.426 C70.635,433.363 69.098,439.881 66.025,443.981 C62.951,448.080 58.360,450.131 52.253,450.131 C48.564,450.131 45.326,449.279 42.540,447.579 C39.752,445.877 37.416,443.571 35.531,440.661 C33.645,437.749 32.231,434.347 31.289,430.452 C30.347,426.557 29.875,422.397 29.875,417.969 C29.875,408.539 31.443,401.447 34.578,396.692 ZM39.435,423.995 C40.111,425.471 41.043,426.680 42.232,427.624 C43.420,428.566 44.824,429.273 46.443,429.745 C48.062,430.216 49.834,430.452 51.761,430.452 C55.573,430.452 58.370,429.540 60.153,427.716 C61.936,425.891 62.828,423.236 62.828,419.752 C62.828,417.415 62.766,415.509 62.643,414.033 C62.520,412.557 62.417,411.306 62.336,410.282 C61.352,410.076 60.276,409.882 59.108,409.698 C57.940,409.513 56.761,409.329 55.573,409.144 C54.384,408.960 53.226,408.816 52.100,408.714 C50.972,408.611 49.979,408.560 49.118,408.560 C45.715,408.560 43.082,409.349 41.218,410.928 C39.352,412.505 38.420,415.119 38.420,418.768 C38.420,420.777 38.759,422.520 39.435,423.995 ZM40.296,619.826 C38.021,618.289 36.115,616.577 34.578,614.691 C33.041,612.805 31.873,610.704 31.074,608.388 C30.275,606.072 29.875,603.376 29.875,600.302 C29.875,597.309 30.459,594.684 31.627,592.430 C32.795,590.175 34.403,588.300 36.453,586.803 C38.502,585.306 40.931,584.179 43.738,583.421 C46.545,582.662 49.588,582.284 52.868,582.284 C56.147,582.284 59.579,582.662 63.166,583.421 C66.752,584.179 70.287,585.317 73.771,586.834 C77.254,588.350 80.574,590.226 83.730,592.461 C86.886,594.695 89.653,597.278 92.030,600.209 C94.407,603.140 96.303,606.410 97.717,610.018 C99.131,613.625 99.838,617.561 99.838,621.825 C99.838,623.464 99.704,625.135 99.438,626.837 C99.171,628.537 98.833,630.167 98.424,631.726 C98.014,633.283 97.553,634.748 97.041,636.122 C96.528,637.496 96.005,638.653 95.473,639.597 L98.485,646.238 L98.485,652.941 L59.200,644.640 C58.503,644.475 57.581,644.271 56.434,644.025 C55.286,643.779 54.067,643.542 52.776,643.317 C51.485,643.092 50.234,642.897 49.026,642.733 C47.816,642.569 46.802,642.487 45.982,642.487 C43.892,642.487 42.334,642.897 41.310,643.717 C40.285,644.537 39.773,645.602 39.773,646.915 C39.773,648.103 40.029,649.241 40.541,650.328 C41.053,651.414 41.679,652.613 42.417,653.925 L37.375,656.693 C36.555,655.626 35.705,654.417 34.824,653.064 C33.942,651.711 33.133,650.205 32.396,648.544 C31.658,646.884 31.054,645.080 30.582,643.133 C30.111,641.185 29.875,639.084 29.875,636.830 C29.875,633.099 30.726,630.106 32.426,627.851 C34.127,625.596 36.616,624.469 39.896,624.469 C41.207,624.469 42.488,624.531 43.738,624.654 C44.988,624.777 46.433,625.001 48.073,625.330 L48.073,624.469 C45.162,622.911 42.570,621.364 40.296,619.826 ZM48.595,619.488 C51.198,621.210 54.138,622.757 57.417,624.131 C60.696,625.504 64.016,626.539 67.377,627.236 L88.280,631.664 C89.468,630.844 90.349,629.706 90.923,628.251 C91.497,626.795 91.784,625.247 91.784,623.608 C91.784,621.148 91.148,618.904 89.878,616.875 C88.607,614.845 86.906,613.010 84.776,611.371 C82.644,609.731 80.226,608.285 77.521,607.035 C74.816,605.784 72.008,604.739 69.098,603.899 C66.188,603.058 63.319,602.433 60.491,602.023 C57.663,601.613 55.081,601.409 52.745,601.409 C50.326,601.409 48.297,601.582 46.659,601.931 C45.019,602.279 43.697,602.751 42.693,603.346 C41.688,603.939 40.972,604.657 40.541,605.498 C40.111,606.338 39.896,607.251 39.896,608.234 C39.896,610.079 40.695,611.986 42.294,613.953 C43.892,615.921 45.992,617.766 48.595,619.488 ZM34.578,799.545 C37.713,794.789 42.518,792.412 48.995,792.412 C50.716,792.412 52.581,792.545 54.589,792.812 C56.597,793.078 58.421,793.396 60.061,793.765 L79.980,798.070 C81.702,798.439 83.259,798.715 84.653,798.900 C86.046,799.084 87.091,799.176 87.788,799.176 C89.468,799.176 90.575,798.663 91.108,797.639 C91.640,796.614 91.907,794.912 91.907,792.535 L91.907,790.260 L98.608,791.613 L98.608,820.946 L70.021,814.796 C70.225,817.215 70.379,819.459 70.482,821.530 C70.584,823.600 70.635,825.229 70.635,826.419 C70.635,834.782 69.098,840.880 66.025,844.714 C62.951,848.546 58.360,850.463 52.253,850.463 C48.564,850.463 45.326,849.684 42.540,848.127 C39.752,846.568 37.416,844.446 35.531,841.762 C33.645,839.076 32.231,835.929 31.289,832.322 C30.347,828.714 29.875,824.881 29.875,820.823 C29.875,811.393 31.443,804.301 34.578,799.545 ZM39.435,825.035 C40.111,826.327 41.043,827.403 42.232,828.264 C43.420,829.125 44.824,829.760 46.443,830.170 C48.062,830.579 49.834,830.785 51.761,830.785 C55.573,830.785 58.370,829.995 60.153,828.417 C61.936,826.839 62.828,824.533 62.828,821.499 C62.828,819.408 62.766,817.717 62.643,816.426 C62.520,815.134 62.417,814.037 62.336,813.136 C61.352,812.930 60.276,812.736 59.108,812.552 C57.940,812.367 56.761,812.183 55.573,811.998 C54.384,811.814 53.226,811.670 52.100,811.568 C50.972,811.465 49.979,811.414 49.118,811.414 C45.675,811.414 43.031,812.100 41.187,813.474 C39.343,814.847 38.420,817.173 38.420,820.454 C38.420,822.216 38.759,823.744 39.435,825.035 ZM33.287,861.717 C35.562,859.134 38.728,857.843 42.785,857.843 C44.589,857.843 46.740,858.006 49.241,858.335 C51.740,858.662 54.589,859.175 57.786,859.872 L81.210,864.792 C81.742,864.915 82.295,865.027 82.870,865.130 C83.443,865.232 83.986,865.324 84.499,865.407 C85.011,865.488 85.452,865.550 85.821,865.591 C86.190,865.631 86.456,865.653 86.620,865.653 C87.767,865.653 88.689,865.530 89.387,865.284 C90.083,865.038 90.616,864.648 90.985,864.115 C91.354,863.582 91.600,862.895 91.723,862.055 C91.846,861.214 91.907,860.200 91.907,859.011 L91.907,856.736 L98.608,857.843 L98.608,887.729 L57.663,878.997 C55.368,878.505 53.226,878.095 51.239,877.767 C49.250,877.439 47.375,877.275 45.613,877.275 C43.769,877.275 42.355,877.654 41.371,878.413 C40.388,879.171 39.896,880.247 39.896,881.641 C39.896,882.953 40.142,884.163 40.634,885.269 C41.126,886.376 41.842,887.647 42.785,889.082 L38.543,892.095 C37.477,891.112 36.422,889.984 35.377,888.713 C34.332,887.442 33.399,886.007 32.580,884.409 C31.760,882.810 31.104,881.057 30.613,879.151 C30.121,877.244 29.875,875.143 29.875,872.848 C29.875,868.010 31.012,864.300 33.287,861.717 ZM99.039,559.899 C98.260,561.662 97.204,563.097 95.873,564.204 C94.540,565.311 93.003,566.100 91.262,566.572 C89.519,567.042 87.685,567.279 85.759,567.279 C84.693,567.279 83.556,567.196 82.347,567.033 C81.138,566.869 79.919,566.673 78.689,566.449 C77.460,566.223 76.230,565.977 75.000,565.711 C73.771,565.444 72.603,565.208 71.496,565.003 L58.032,562.113 C55.778,561.580 53.646,561.149 51.638,560.822 C49.630,560.493 47.744,560.330 45.982,560.330 C44.138,560.330 42.734,560.719 41.771,561.498 C40.808,562.277 40.326,563.363 40.326,564.757 C40.326,566.069 40.572,567.268 41.064,568.355 C41.556,569.441 42.273,570.722 43.216,572.198 L38.912,575.212 C37.846,574.186 36.791,573.038 35.746,571.768 C34.701,570.497 33.768,569.072 32.949,567.494 C32.128,565.915 31.473,564.163 30.982,562.236 C30.490,560.309 30.244,558.198 30.244,555.902 C30.244,551.106 31.391,547.416 33.687,544.833 C35.981,542.250 39.158,540.959 43.216,540.959 C44.978,540.959 47.109,541.113 49.610,541.420 C52.109,541.728 54.958,542.229 58.155,542.927 L68.115,545.079 C68.934,545.284 69.938,545.519 71.127,545.786 C72.316,546.052 73.556,546.298 74.847,546.524 C76.138,546.749 77.429,546.944 78.720,547.108 C80.011,547.272 81.168,547.354 82.193,547.354 C82.972,547.354 83.792,547.282 84.653,547.139 C85.513,546.995 86.291,546.739 86.989,546.370 C87.685,546.001 88.259,545.488 88.710,544.833 C89.161,544.177 89.387,543.336 89.387,542.312 C89.387,540.959 88.915,539.616 87.972,538.284 C87.029,536.951 85.790,535.649 84.253,534.379 C82.716,533.108 80.953,531.909 78.966,530.781 C76.977,529.653 74.939,528.629 72.849,527.707 C70.758,526.784 68.699,525.995 66.670,525.339 C64.641,524.683 62.806,524.211 61.168,523.925 L55.880,522.941 C55.020,522.777 53.841,522.582 52.345,522.357 C50.849,522.131 49.241,521.895 47.519,521.649 C45.798,521.403 44.035,521.158 42.232,520.912 C40.428,520.666 38.759,520.450 37.222,520.266 C35.685,520.081 34.363,519.937 33.256,519.835 C32.150,519.733 31.432,519.682 31.104,519.682 L31.104,500.126 C31.596,500.126 32.457,500.197 33.687,500.341 C34.916,500.485 36.361,500.680 38.021,500.926 C39.681,501.172 41.473,501.458 43.400,501.787 C45.326,502.114 47.252,502.442 49.179,502.771 C51.105,503.098 52.939,503.426 54.682,503.754 C56.423,504.082 57.929,504.390 59.200,504.677 L67.992,506.583 C68.770,506.747 69.754,506.942 70.943,507.167 C72.131,507.392 73.371,507.618 74.662,507.844 C75.953,508.069 77.254,508.264 78.566,508.428 C79.877,508.591 81.046,508.674 82.071,508.674 C82.849,508.674 83.648,508.633 84.468,508.551 C85.288,508.468 86.036,508.294 86.712,508.028 C87.388,507.761 87.942,507.352 88.372,506.798 C88.802,506.245 89.018,505.496 89.018,504.554 C89.018,503.160 88.587,501.776 87.727,500.403 C86.866,499.029 85.718,497.707 84.284,496.437 C82.849,495.165 81.210,493.956 79.365,492.808 C77.521,491.660 75.625,490.625 73.679,489.703 C71.731,488.780 69.805,487.981 67.900,487.305 C65.994,486.628 64.262,486.126 62.705,485.798 L31.104,478.726 L31.104,459.847 L81.210,470.424 C81.742,470.547 82.295,470.660 82.870,470.762 C83.443,470.864 83.986,470.956 84.499,471.039 C85.011,471.121 85.452,471.182 85.821,471.224 C86.190,471.264 86.456,471.285 86.620,471.285 C87.767,471.285 88.689,471.162 89.387,470.916 C90.083,470.670 90.616,470.280 90.985,469.748 C91.354,469.214 91.600,468.527 91.723,467.688 C91.846,466.847 91.907,465.832 91.907,464.644 L91.907,462.368 L98.608,463.475 L98.608,492.685 L85.759,490.287 L85.759,491.209 C88.300,492.849 90.462,494.540 92.245,496.283 C94.028,498.025 95.483,499.859 96.610,501.787 C97.737,503.713 98.556,505.753 99.069,507.905 C99.581,510.058 99.838,512.384 99.838,514.885 C99.838,517.508 99.469,519.702 98.731,521.465 C97.994,523.227 96.989,524.642 95.719,525.708 C94.448,526.774 92.993,527.542 91.354,528.014 C89.714,528.485 87.972,528.721 86.128,528.721 L85.144,528.721 L85.144,529.459 C87.644,531.017 89.837,532.626 91.723,534.287 C93.607,535.947 95.175,537.740 96.426,539.668 C97.676,541.594 98.618,543.685 99.254,545.940 C99.889,548.194 100.207,550.675 100.207,553.381 C100.207,555.964 99.817,558.136 99.039,559.899 ZM91.723,186.778 C90.985,185.404 89.971,184.205 88.679,183.181 C87.388,182.156 85.841,181.305 84.038,180.629 C82.234,179.952 80.288,179.430 78.197,179.061 C78.197,174.510 78.843,171.128 80.134,168.914 C81.425,166.700 83.217,165.593 85.513,165.593 C87.193,165.593 88.904,166.105 90.647,167.131 C92.388,168.155 93.956,169.785 95.350,172.020 C96.743,174.254 97.880,177.133 98.762,180.660 C99.643,184.185 100.084,188.448 100.084,193.451 C100.084,197.550 99.684,201.147 98.885,204.243 C98.086,207.338 96.989,209.931 95.596,212.022 C94.202,214.113 92.562,215.691 90.678,216.757 C88.792,217.823 86.763,218.356 84.591,218.356 C82.009,218.356 79.765,217.854 77.859,216.849 C75.953,215.844 74.303,214.533 72.910,212.914 C71.516,211.294 70.348,209.439 69.406,207.348 C68.463,205.258 67.663,203.105 67.008,200.891 L66.332,200.768 C65.880,202.531 65.235,204.171 64.395,205.688 C63.555,207.204 62.530,208.526 61.321,209.655 C60.112,210.782 58.739,211.673 57.202,212.330 C55.665,212.985 53.975,213.313 52.130,213.313 C48.605,213.313 45.469,212.596 42.724,211.161 C39.978,209.726 37.652,207.615 35.746,204.827 C33.840,202.039 32.385,198.606 31.381,194.527 C30.377,190.447 29.875,185.764 29.875,180.475 C29.875,175.924 30.305,172.029 31.166,168.791 C32.027,165.552 33.143,162.897 34.517,160.827 C35.889,158.757 37.437,157.230 39.158,156.246 C40.880,155.262 42.601,154.770 44.322,154.770 C45.634,154.770 46.894,154.964 48.103,155.354 C49.312,155.744 50.378,156.431 51.300,157.414 C52.222,158.398 52.950,159.730 53.483,161.412 C54.015,163.092 54.282,165.203 54.282,167.746 C51.290,167.746 48.718,168.155 46.566,168.976 C44.415,169.795 42.652,170.871 41.279,172.204 C39.906,173.536 38.891,175.012 38.236,176.632 C37.580,178.251 37.252,179.860 37.252,181.459 C37.252,185.804 38.399,189.248 40.695,191.790 C42.990,194.332 46.597,195.603 51.515,195.603 C52.950,195.603 54.333,195.326 55.665,194.773 C56.997,194.219 58.165,193.409 59.170,192.344 C60.173,191.277 60.973,189.966 61.567,188.408 C62.161,186.849 62.459,185.087 62.459,183.119 L62.459,171.374 L70.267,172.788 L70.267,185.272 C70.267,187.486 70.574,189.515 71.189,191.360 C71.804,193.205 72.674,194.782 73.802,196.095 C74.928,197.406 76.291,198.421 77.890,199.139 C79.488,199.856 81.271,200.215 83.239,200.215 C84.509,200.215 85.718,200.051 86.866,199.723 C88.013,199.394 89.027,198.872 89.909,198.155 C90.790,197.437 91.497,196.525 92.030,195.418 C92.562,194.312 92.829,192.979 92.829,191.421 C92.829,189.699 92.460,188.151 91.723,186.778 ZM91.262,772.395 C89.519,772.866 87.685,773.103 85.759,773.103 C84.693,773.103 83.556,773.020 82.347,772.857 C81.138,772.692 79.919,772.497 78.689,772.272 C77.460,772.047 76.230,771.801 75.000,771.534 C73.771,771.267 72.603,771.032 71.496,770.827 L58.032,767.937 C55.778,767.404 53.646,766.973 51.638,766.646 C49.630,766.317 47.744,766.154 45.982,766.154 C44.138,766.154 42.734,766.543 41.771,767.322 C40.808,768.100 40.326,769.187 40.326,770.581 C40.326,771.893 40.572,773.092 41.064,774.179 C41.556,775.265 42.273,776.546 43.216,778.022 L38.912,781.035 C37.846,780.010 36.791,778.862 35.746,777.592 C34.701,776.321 33.768,774.896 32.949,773.318 C32.128,771.739 31.473,769.987 30.982,768.060 C30.490,766.133 30.244,764.022 30.244,761.726 C30.244,756.929 31.391,753.240 33.687,750.657 C35.981,748.074 39.158,746.783 43.216,746.783 C44.978,746.783 47.109,746.936 49.610,747.244 C52.109,747.551 54.958,748.053 58.155,748.751 L68.115,750.903 C68.934,751.108 69.938,751.343 71.127,751.610 C72.316,751.876 73.556,752.122 74.847,752.348 C76.138,752.573 77.429,752.768 78.720,752.932 C80.011,753.096 81.168,753.178 82.193,753.178 C82.972,753.178 83.792,753.106 84.653,752.963 C85.513,752.819 86.291,752.563 86.989,752.194 C87.685,751.825 88.259,751.312 88.710,750.657 C89.161,750.001 89.387,749.160 89.387,748.136 C89.387,746.783 88.915,745.439 87.972,744.108 C87.029,742.775 85.790,741.473 84.253,740.203 C82.716,738.932 80.953,737.732 78.966,736.605 C76.977,735.477 74.939,734.453 72.849,733.531 C70.758,732.608 68.699,731.818 66.670,731.163 C64.641,730.507 62.806,730.035 61.168,729.749 L55.880,728.765 C55.020,728.600 53.841,728.405 52.345,728.180 C50.849,727.955 49.241,727.719 47.519,727.473 C45.798,727.227 44.035,726.981 42.232,726.735 C40.428,726.489 38.759,726.274 37.222,726.090 C35.685,725.905 34.363,725.761 33.256,725.659 C32.150,725.556 31.432,725.505 31.104,725.505 L31.104,705.950 C31.596,705.950 32.457,706.021 33.687,706.165 C34.916,706.308 36.361,706.503 38.021,706.749 C39.681,706.995 41.473,707.282 43.400,707.610 C45.326,707.938 47.252,708.266 49.179,708.594 C51.105,708.922 52.939,709.250 54.682,709.578 C56.423,709.906 57.929,710.213 59.200,710.501 L67.992,712.407 C68.770,712.570 69.754,712.765 70.943,712.991 C72.131,713.216 73.371,713.442 74.662,713.668 C75.953,713.893 77.254,714.088 78.566,714.252 C79.877,714.415 81.046,714.498 82.071,714.498 C82.849,714.498 83.648,714.457 84.468,714.375 C85.288,714.292 86.036,714.118 86.712,713.852 C87.388,713.585 87.942,713.176 88.372,712.622 C88.802,712.069 89.018,711.320 89.018,710.378 C89.018,708.983 88.587,707.600 87.727,706.227 C86.866,704.853 85.718,703.531 84.284,702.260 C82.849,700.989 81.210,699.779 79.365,698.632 C77.521,697.484 75.625,696.449 73.679,695.527 C71.731,694.604 69.805,693.805 67.900,693.128 C65.994,692.452 64.262,691.949 62.705,691.622 L31.104,684.550 L31.104,665.671 L81.210,676.248 C81.742,676.371 82.295,676.483 82.870,676.586 C83.443,676.688 83.986,676.780 84.499,676.863 C85.011,676.945 85.452,677.006 85.821,677.047 C86.190,677.088 86.456,677.109 86.620,677.109 C87.767,677.109 88.689,676.986 89.387,676.740 C90.083,676.494 90.616,676.104 90.985,675.571 C91.354,675.038 91.600,674.351 91.723,673.511 C91.846,672.671 91.907,671.656 91.907,670.467 L91.907,668.192 L98.608,669.299 L98.608,698.509 L85.759,696.111 L85.759,697.033 C88.300,698.673 90.462,700.364 92.245,702.107 C94.028,703.849 95.483,705.683 96.610,707.610 C97.737,709.537 98.556,711.577 99.069,713.729 C99.581,715.881 99.838,718.208 99.838,720.709 C99.838,723.332 99.469,725.526 98.731,727.289 C97.994,729.051 96.989,730.465 95.719,731.532 C94.448,732.598 92.993,733.366 91.354,733.838 C89.714,734.309 87.972,734.545 86.128,734.545 L85.144,734.545 L85.144,735.283 C87.644,736.841 89.837,738.450 91.723,740.111 C93.607,741.771 95.175,743.564 96.426,745.491 C97.676,747.418 98.618,749.509 99.254,751.764 C99.889,754.018 100.207,756.499 100.207,759.205 C100.207,761.788 99.817,763.960 99.039,765.723 C98.260,767.485 97.204,768.921 95.873,770.028 C94.540,771.135 93.003,771.924 91.262,772.395 Z"/>
</svg>