<svg 
 xmlns="http://www.w3.org/2000/svg"
 xmlns:xlink="http://www.w3.org/1999/xlink"
 width="119px" height="432px">
<path fill-rule="evenodd"  fill="rgb(248, 243, 233)"
 d="M118.586,197.804 C118.340,199.568 118.001,201.188 117.571,202.665 C117.140,204.141 116.627,205.516 116.032,206.787 C115.437,208.059 114.812,209.309 114.156,210.540 L107.388,207.894 C107.758,206.623 108.116,205.229 108.465,203.711 C108.813,202.194 108.988,200.491 108.988,198.604 C108.988,195.159 107.521,192.032 104.589,189.222 C101.656,186.413 97.503,184.023 92.131,182.054 L89.362,181.070 C89.691,181.808 89.988,182.537 90.254,183.254 C90.520,183.972 90.746,184.752 90.931,185.592 C91.115,186.433 91.248,187.367 91.331,188.391 C91.413,189.417 91.454,190.627 91.454,192.021 C91.454,194.482 91.136,196.564 90.500,198.266 C89.865,199.968 89.004,201.363 87.916,202.449 C86.830,203.537 85.558,204.316 84.102,204.787 C82.646,205.259 81.078,205.495 79.395,205.495 C79.026,205.495 78.595,205.475 78.103,205.433 C77.611,205.393 77.099,205.341 76.565,205.280 C76.033,205.218 75.530,205.157 75.058,205.095 C74.587,205.033 74.187,204.962 73.858,204.880 L73.858,205.926 C76.483,207.771 78.863,209.586 80.995,211.370 C83.128,213.155 84.963,215.052 86.501,217.061 C88.039,219.071 89.229,221.245 90.070,223.583 C90.910,225.921 91.331,228.587 91.331,231.581 C91.331,234.288 90.951,236.564 90.193,238.410 C89.434,240.256 88.419,241.732 87.147,242.840 C85.876,243.947 84.389,244.747 82.687,245.239 C80.985,245.731 79.211,245.977 77.365,245.977 C75.273,245.977 72.977,245.731 70.474,245.239 C67.973,244.747 65.655,244.276 63.522,243.824 L41.312,239.271 C39.590,238.943 38.031,238.677 36.636,238.471 C35.243,238.267 34.197,238.164 33.499,238.164 C31.817,238.164 30.710,238.677 30.177,239.702 C29.644,240.728 29.377,242.430 29.377,244.808 L29.377,247.085 L22.671,245.977 L22.671,215.708 L60.385,224.013 C61.369,224.260 62.476,224.506 63.707,224.752 C64.937,224.998 66.168,225.224 67.398,225.428 C68.629,225.634 69.798,225.808 70.905,225.951 C72.012,226.096 72.956,226.167 73.735,226.167 C75.581,226.167 77.048,225.777 78.134,224.998 C79.221,224.219 79.764,222.804 79.764,220.753 C79.764,218.907 78.934,217.010 77.273,215.062 C75.612,213.114 73.458,211.247 70.813,209.463 C68.167,207.679 65.214,206.090 61.953,204.695 C58.693,203.301 55.484,202.234 52.325,201.496 L22.671,194.790 L22.671,176.025 L63.645,184.577 C65.943,185.110 68.086,185.541 70.074,185.869 C72.064,186.198 73.941,186.361 75.704,186.361 C77.550,186.361 78.965,185.982 79.949,185.223 C80.933,184.464 81.426,183.368 81.426,181.931 C81.426,180.661 81.179,179.461 80.687,178.332 C80.195,177.205 79.478,175.943 78.534,174.549 L82.779,171.472 C89.054,172.663 94.469,173.810 99.021,174.918 C103.574,176.025 107.327,177.328 110.280,178.824 C113.233,180.322 115.417,182.106 116.832,184.177 C118.247,186.249 118.955,188.822 118.955,191.898 C118.955,194.073 118.832,196.041 118.586,197.804 ZM90.500,111.702 C89.865,113.569 89.004,115.077 87.916,116.224 C86.830,117.373 85.558,118.193 84.102,118.685 C82.646,119.178 81.078,119.424 79.395,119.424 C79.026,119.424 78.595,119.403 78.103,119.362 C77.611,119.322 77.099,119.270 76.565,119.208 C76.033,119.147 75.530,119.085 75.058,119.024 C74.587,118.962 74.187,118.891 73.858,118.808 L73.858,119.854 C76.483,121.700 78.863,123.515 80.995,125.299 C83.128,127.083 84.963,128.981 86.501,130.990 C88.039,133.000 89.229,135.174 90.070,137.511 C90.910,139.849 91.331,142.516 91.331,145.510 C91.331,148.217 90.951,150.493 90.193,152.339 C89.434,154.184 88.419,155.661 87.147,156.768 C85.876,157.876 84.389,158.676 82.687,159.168 C80.985,159.660 79.211,159.906 77.365,159.906 C75.273,159.906 72.977,159.660 70.474,159.168 C67.973,158.676 65.655,158.205 63.522,157.753 L41.312,153.200 C39.590,152.872 38.031,152.606 36.636,152.400 C35.243,152.195 34.197,152.093 33.499,152.093 C31.817,152.093 30.710,152.606 30.177,153.631 C29.644,154.656 29.377,156.359 29.377,158.737 L29.377,161.013 L22.671,159.906 L22.671,129.636 L60.385,137.942 C61.369,138.188 62.476,138.434 63.707,138.680 C64.937,138.927 66.168,139.152 67.398,139.357 C68.629,139.563 69.798,139.737 70.905,139.880 C72.012,140.024 72.956,140.095 73.735,140.095 C75.581,140.095 77.048,139.706 78.134,138.927 C79.221,138.148 79.764,136.733 79.764,134.681 C79.764,132.836 78.934,130.939 77.273,128.990 C75.612,127.043 73.458,125.176 70.813,123.392 C68.167,121.608 65.214,120.019 61.953,118.624 C58.693,117.230 55.484,116.163 52.325,115.425 L22.671,108.719 L22.671,89.954 L63.645,98.506 C65.943,99.039 68.086,99.470 70.074,99.798 C72.064,100.126 73.941,100.290 75.704,100.290 C77.550,100.290 78.965,99.911 79.949,99.152 C80.933,98.393 81.426,97.296 81.426,95.860 C81.426,94.548 81.179,93.348 80.687,92.261 C80.195,91.175 79.478,89.913 78.534,88.477 L82.779,85.401 C83.846,86.427 84.902,87.576 85.948,88.846 C86.993,90.118 87.927,91.544 88.747,93.122 C89.568,94.702 90.223,96.455 90.716,98.383 C91.208,100.311 91.454,102.423 91.454,104.719 C91.454,107.509 91.136,109.837 90.500,111.702 ZM90.500,26.923 C89.865,28.790 89.004,30.297 87.916,31.445 C86.830,32.594 85.558,33.414 84.102,33.906 C82.646,34.398 81.078,34.644 79.395,34.644 C79.026,34.644 78.595,34.624 78.103,34.583 C77.611,34.542 77.099,34.490 76.565,34.429 C76.033,34.367 75.530,34.306 75.058,34.244 C74.587,34.183 74.187,34.112 73.858,34.029 L73.858,35.075 C76.483,36.921 78.863,38.736 80.995,40.520 C83.128,42.304 84.963,44.202 86.501,46.211 C88.039,48.221 89.229,50.394 90.070,52.732 C90.910,55.070 91.331,57.737 91.331,60.730 C91.331,63.437 90.951,65.714 90.193,67.559 C89.434,69.405 88.419,70.882 87.147,71.989 C85.876,73.096 84.389,73.896 82.687,74.388 C80.985,74.881 79.211,75.127 77.365,75.127 C75.273,75.127 72.977,74.881 70.474,74.388 C67.973,73.896 65.655,73.425 63.522,72.973 L41.312,68.421 C39.590,68.093 38.031,67.827 36.636,67.621 C35.243,67.416 34.197,67.313 33.499,67.313 C31.817,67.313 30.710,67.827 30.177,68.851 C29.644,69.877 29.377,71.580 29.377,73.958 L29.377,76.234 L22.671,75.127 L22.671,44.857 L60.385,53.163 C61.369,53.409 62.476,53.655 63.707,53.901 C64.937,54.147 66.168,54.373 67.398,54.578 C68.629,54.784 69.798,54.958 70.905,55.101 C72.012,55.245 72.956,55.316 73.735,55.316 C75.581,55.316 77.048,54.927 78.134,54.147 C79.221,53.369 79.764,51.954 79.764,49.902 C79.764,48.056 78.934,46.160 77.273,44.211 C75.612,42.264 73.458,40.397 70.813,38.613 C68.167,36.828 65.214,35.239 61.953,33.844 C58.693,32.451 55.484,31.384 52.325,30.645 L22.671,23.939 L22.671,5.175 L63.645,13.726 C65.943,14.260 68.086,14.691 70.074,15.018 C72.064,15.347 73.941,15.511 75.704,15.511 C77.550,15.511 78.965,15.132 79.949,14.372 C80.933,13.614 81.426,12.517 81.426,11.081 C81.426,9.769 81.179,8.569 80.687,7.482 C80.195,6.395 79.478,5.134 78.534,3.698 L82.779,0.622 C83.846,1.648 84.902,2.796 85.948,4.067 C86.993,5.339 87.927,6.765 88.747,8.343 C89.568,9.922 90.223,11.676 90.716,13.603 C91.208,15.532 91.454,17.644 91.454,19.940 C91.454,22.730 91.136,25.057 90.500,26.923 ZM26.762,253.452 C27.768,253.063 28.803,252.868 29.869,252.868 C32.905,252.868 35.324,253.637 37.129,255.175 C38.934,256.713 39.836,259.020 39.836,262.096 C37.170,262.096 35.304,262.496 34.237,263.296 C33.171,264.096 32.637,265.378 32.637,267.141 C32.637,268.249 32.914,269.347 33.468,270.433 C34.022,271.520 34.781,272.607 35.744,273.694 C36.709,274.781 37.827,275.878 39.097,276.985 C40.369,278.093 41.703,279.221 43.096,280.369 C44.656,281.641 45.988,282.779 47.095,283.783 C48.203,284.789 49.157,285.732 49.956,286.614 C50.756,287.496 51.423,288.347 51.956,289.167 C52.489,289.988 52.940,290.828 53.309,291.689 C53.309,287.588 54.386,284.112 56.539,281.261 C58.693,278.411 61.738,276.104 65.676,274.340 L73.366,270.771 C75.253,269.910 76.883,269.090 78.257,268.310 C79.632,267.532 80.780,266.691 81.702,265.788 C82.625,264.886 83.313,263.881 83.763,262.773 C84.215,261.666 84.440,260.395 84.440,258.959 L84.440,258.159 L91.085,259.697 L91.085,261.358 C91.085,265.706 90.910,269.387 90.562,272.402 C90.214,275.416 89.557,277.969 88.593,280.061 C87.630,282.153 86.296,283.886 84.594,285.260 C82.893,286.635 80.687,287.855 77.980,288.921 L67.029,293.227 C65.758,293.719 64.671,294.242 63.768,294.796 C62.867,295.350 62.128,295.986 61.553,296.703 C60.980,297.421 60.549,298.252 60.261,299.195 C59.975,300.139 59.831,301.247 59.831,302.517 L90.223,308.977 L90.223,327.865 L41.312,317.529 C39.590,317.160 38.031,316.883 36.636,316.699 C35.243,316.514 34.197,316.422 33.499,316.422 C31.817,316.422 30.710,316.935 30.177,317.960 C29.644,318.985 29.377,320.688 29.377,323.066 L29.377,325.343 L22.671,323.989 L22.671,294.212 L51.894,300.918 C51.894,299.770 51.382,298.426 50.356,296.888 C49.331,295.350 47.588,293.535 45.127,291.443 L37.805,285.291 C35.058,283.036 32.668,281.036 30.638,279.292 C28.608,277.549 26.916,275.847 25.562,274.186 C24.209,272.525 23.204,270.792 22.548,268.987 C21.892,267.183 21.563,265.091 21.563,262.712 C21.563,260.989 21.800,259.512 22.271,258.282 C22.743,257.052 23.358,256.036 24.116,255.237 C24.876,254.437 25.757,253.843 26.762,253.452 ZM78.103,344.938 C79.211,344.590 80.164,344.128 80.964,343.553 C81.764,342.980 82.390,342.252 82.841,341.369 C83.292,340.488 83.517,339.391 83.517,338.078 L83.517,335.802 L90.223,337.155 L90.223,378.745 L83.517,377.391 L83.517,374.500 C83.517,371.793 83.097,369.639 82.256,368.040 C81.416,366.440 80.072,365.640 78.226,365.640 C77.529,365.640 76.842,365.662 76.165,365.702 C75.489,365.743 74.843,365.805 74.227,365.886 L60.631,367.794 L60.631,398.432 L71.951,404.585 C73.469,405.406 74.802,406.010 75.950,406.400 C77.099,406.790 78.124,406.984 79.026,406.984 C80.585,406.984 81.724,406.410 82.441,405.261 C83.159,404.114 83.517,402.330 83.517,399.909 L83.517,397.386 L90.223,398.802 L90.223,431.532 L83.517,430.178 L83.517,427.533 C83.517,426.384 83.385,425.370 83.117,424.488 C82.851,423.606 82.348,422.755 81.610,421.934 C80.872,421.114 79.867,420.264 78.595,419.381 C77.325,418.500 75.704,417.484 73.735,416.336 L0.276,373.577 L0.276,356.350 L74.473,345.768 C75.787,345.564 76.996,345.287 78.103,344.938 ZM52.940,368.655 L31.776,370.931 C29.930,371.137 28.198,371.331 26.577,371.516 C24.958,371.700 23.389,371.865 21.871,372.008 C20.354,372.152 18.877,372.275 17.441,372.377 C16.006,372.480 14.529,372.552 13.011,372.593 C14.529,373.208 15.934,373.823 17.226,374.438 C18.518,375.053 19.831,375.710 21.163,376.407 C22.497,377.105 23.912,377.874 25.408,378.714 C26.906,379.555 28.638,380.529 30.607,381.636 L52.940,394.126 L52.940,368.655 Z"/>
</svg>