<?xml version="1.0" encoding="utf-8"?>
<!-- Generator: Adobe Illustrator 24.1.2, SVG Export Plug-In . SVG Version: 6.00 Build 0)  -->
<svg version="1.1" id="Слой_1" xmlns="http://www.w3.org/2000/svg" xmlns:xlink="http://www.w3.org/1999/xlink" x="0px" y="0px"
	 viewBox="0 0 145 145" style="enable-background:new 0 0 145 145;" xml:space="preserve">
<style type="text/css">
	.st0{fill:#1D1D1B;}
</style>
<circle class="st0" cx="62.1" cy="6.3" r="1.5"/>
<circle class="st0" cx="83.1" cy="138.3" r="1.5"/>
<g>
	<path class="st0" d="M101.3,128.4l3.8-2.3c1.1-0.6,2.1-0.8,3-0.6c0.7,0.2,1.4,0.7,1.9,1.5c0.8,1.4,0.6,2.7-0.2,3.7l3.9,1.8
		l-2.2,1.3l-3.4-1.6l-1.4,0.9l1.6,2.7l-1.9,1.1L101.3,128.4z M107.4,130.2c0.9-0.5,1.1-1.3,0.7-2.1c-0.5-0.8-1.3-0.9-2.2-0.3
		l-1.8,1.1l1.4,2.4L107.4,130.2z"/>
	<path class="st0" d="M112.5,120.9l5.4-5l1.3,1.4l-3.9,3.6l1.4,1.5l3.4-3.1l1.3,1.4l-3.4,3.1l1.4,1.5l3.9-3.6l1.3,1.4l-5.5,5.1
		L112.5,120.9z"/>
	<path class="st0" d="M124.5,111l-1.7,2.4l-1.6-1.2l4.7-6.6l1.6,1.2l-1.7,2.4l6.3,4.6l-1.3,1.8L124.5,111z"/>
	<path class="st0" d="M133.4,103.7l-5.1-2.2l0.9-2l5.1,2.2c1.5,0.6,2.5,0.2,3.1-1c0.5-1.2,0.1-2.3-1.3-2.9l-5.1-2.2l0.9-2l5.1,2.2
		c2.7,1.2,3.4,3.3,2.3,5.7C138.1,103.9,136.1,104.8,133.4,103.7z"/>
	<path class="st0" d="M133.3,88.2l0.8-4.4c0.2-1.2,0.8-2.1,1.5-2.6c0.6-0.4,1.5-0.6,2.4-0.4c1.6,0.3,2.4,1.3,2.6,2.6l3.9-1.7
		l-0.5,2.5l-3.5,1.5l-0.3,1.6l3.1,0.6l-0.4,2.1L133.3,88.2z M138.8,84.9c0.2-1-0.2-1.7-1.1-1.9c-0.9-0.2-1.5,0.4-1.7,1.4l-0.4,2.1
		l2.8,0.5L138.8,84.9z"/>
	<path class="st0" d="M135.3,74.9l-0.1-2l5.9-4.8l-6,0.2l-0.1-2.1l9.8-0.3l0.1,1.8l-6.1,4.9l6.2-0.2l0.1,2.1L135.3,74.9z"/>
	<path class="st0" d="M133.2,49.9l1.1,2.8l-1.9,0.7l-3-7.6l1.9-0.7l1.1,2.8l7.3-2.8l0.8,2L133.2,49.9z"/>
	<path class="st0" d="M131.7,39.4c-2.3,1.5-5.4,1-7.1-1.5c-1.7-2.5-1-5.6,1.3-7.1c2.3-1.5,5.4-1,7.1,1.5
		C134.7,34.7,134,37.8,131.7,39.4z M127.1,32.6c-1.4,0.9-1.9,2.7-0.9,4.2c1,1.4,2.8,1.7,4.2,0.7c1.4-0.9,1.9-2.7,0.9-4.2
		C130.4,31.9,128.6,31.6,127.1,32.6z"/>
	<path class="st0" d="M111.8,21.1l2.4,1.8l-1.2,1.6l-6.5-4.8l1.2-1.6l2.4,1.8l4.6-6.3l1.7,1.3L111.8,21.1z"/>
	<path class="st0" d="M104.9,12.9c-1.1,2.5-4.1,3.7-6.8,2.5c-2.8-1.2-3.8-4.2-2.7-6.8c1.1-2.5,4.1-3.7,6.8-2.5S106,10.4,104.9,12.9z
		 M97.4,9.6c-0.7,1.5-0.1,3.3,1.4,4c1.6,0.7,3.2,0,3.9-1.6c0.7-1.5,0.1-3.3-1.4-4C99.8,7.3,98.1,8,97.4,9.6z"/>
	<path class="st0" d="M88.2,11.7l-3.9-0.8c-2.3-0.5-3.4-2.1-3-4.1c0.4-2.2,2.4-3,4.6-2.6l1.6,0.3l0.6-2.9l2.1,0.4L88.2,11.7z
		 M85.4,6.1c-1.1-0.2-1.8,0.3-2,1.1c-0.2,0.9,0.4,1.6,1.4,1.8l1.6,0.3l0.6-2.9L85.4,6.1z"/>
	<path class="st0" d="M44.9,16.1L41,18.3c-1.1,0.6-2.1,0.8-3,0.6c-0.7-0.2-1.4-0.7-1.9-1.6c-0.8-1.4-0.5-2.7,0.3-3.7l-3.8-1.9
		l2.2-1.2l3.4,1.7l1.4-0.8l-1.6-2.7L40,7.6L44.9,16.1z M38.7,14.1c-0.9,0.5-1.2,1.3-0.7,2c0.5,0.8,1.3,0.9,2.2,0.4l1.9-1.1L40.6,13
		L38.7,14.1z"/>
	<path class="st0" d="M33.4,23.3l-5.5,4.9l-1.3-1.4l3.9-3.5l-1.3-1.5l-3.5,3.1l-1.3-1.4l3.5-3.1l-1.4-1.5l-4,3.5L21.3,21l5.6-5
		L33.4,23.3z"/>
	<path class="st0" d="M21.3,33l1.8-2.4l1.6,1.2l-4.9,6.5l-1.6-1.2l1.8-2.4L13.7,30l1.3-1.7L21.3,33z"/>
	<path class="st0" d="M12.2,40.2l5.1,2.3l-0.9,2l-5-2.3c-1.5-0.7-2.5-0.3-3.1,0.9c-0.5,1.2-0.2,2.3,1.3,2.9l5.1,2.3l-0.9,2l-5-2.3
		c-2.7-1.2-3.3-3.4-2.2-5.8C7.5,39.8,9.6,39,12.2,40.2z"/>
	<path class="st0" d="M12,55.6L11,60c-0.3,1.2-0.8,2.1-1.6,2.6C8.8,63,8,63.1,7.1,62.9c-1.5-0.3-2.3-1.4-2.5-2.7l-3.9,1.6l0.5-2.5
		l3.5-1.4L5,56.3l-3.1-0.7l0.5-2.1L12,55.6z M6.4,58.8c-0.2,1,0.2,1.7,1,1.9c0.9,0.2,1.5-0.3,1.7-1.4l0.4-2.1l-2.8-0.6L6.4,58.8z"/>
	<path class="st0" d="M9.7,68.9l0,2l-6,4.7l6-0.1l0,2.1l-9.8,0.1l0-1.8l6.2-4.8L0,71.2l0-2.1L9.7,68.9z"/>
	<path class="st0" d="M11.4,93.9l-1-2.8l1.9-0.7l2.8,7.6l-1.9,0.7l-1-2.8l-7.3,2.7l-0.7-2L11.4,93.9z"/>
	<path class="st0" d="M12.7,104.5c2.3-1.5,5.5-0.9,7.1,1.7c1.6,2.5,0.9,5.6-1.5,7.1c-2.3,1.5-5.5,0.9-7.1-1.7
		C9.6,109.1,10.3,106,12.7,104.5z M17.1,111.4c1.4-0.9,1.9-2.7,1-4.2s-2.7-1.7-4.2-0.8c-1.4,0.9-1.9,2.7-1,4.2
		C13.9,112,15.7,112.3,17.1,111.4z"/>
	<path class="st0" d="M32.2,123.1l-2.4-1.8l1.2-1.6l6.4,4.9l-1.2,1.6l-2.4-1.8l-4.8,6.2l-1.7-1.3L32.2,123.1z"/>
	<path class="st0" d="M39,131.4c1.2-2.5,4.2-3.6,6.9-2.4c2.7,1.3,3.7,4.3,2.5,6.8c-1.2,2.5-4.2,3.6-6.9,2.4
		C38.8,136.9,37.8,134,39,131.4z M46.3,134.9c0.7-1.5,0.2-3.3-1.4-4.1s-3.2,0-4,1.5c-0.7,1.5-0.2,3.3,1.4,4.1
		C43.9,137.2,45.6,136.5,46.3,134.9z"/>
	<path class="st0" d="M55.6,133l3.9,0.9c2.3,0.5,3.4,2.2,2.9,4.1c-0.5,2.2-2.5,3-4.6,2.5l-1.6-0.4l-0.6,2.9l-2.1-0.5L55.6,133z
		 M58.3,138.7c1.1,0.2,1.8-0.3,2-1.1c0.2-0.9-0.3-1.6-1.4-1.8l-1.6-0.4l-0.6,2.9L58.3,138.7z"/>
</g>
</svg>
