<?xml version="1.0" encoding="utf-8"?>
<!-- Generator: Adobe Illustrator 24.1.2, SVG Export Plug-In . SVG Version: 6.00 Build 0)  -->
<svg version="1.1" id="Слой_1" xmlns="http://www.w3.org/2000/svg" xmlns:xlink="http://www.w3.org/1999/xlink" x="0px" y="0px"
	 viewBox="0 0 145 145" style="enable-background:new 0 0 145 145;" xml:space="preserve">
<style type="text/css">
	.st0{fill:#1D1D1B;}
</style>
<circle class="st0" cx="62.1" cy="6.3" r="1.5"/>
<circle class="st0" cx="83.1" cy="138.3" r="1.5"/>
<g>
	<path d="M38,10.8l-0.3,2c-1.1-0.1-2.2,0-3.1,0.6c-0.7,0.5-1,1.1-0.7,1.6c0.3,0.5,0.7,0.5,2.3,0c1.9-0.6,3.3-0.8,4.4,0.8
		c0.9,1.5,0.4,3.3-1.3,4.3c-1.2,0.8-2.5,1-3.7,0.9l0.1-2c1.1,0,2-0.1,2.7-0.5c0.7-0.4,0.9-1,0.6-1.4c-0.3-0.5-0.8-0.5-2.5,0
		c-2,0.6-3.3,0.6-4.2-0.8c-1-1.6-0.4-3.4,1.4-4.5C34.9,10.9,36.4,10.6,38,10.8z"/>
	<path d="M27.9,22.1c2,2,2.1,5.1,0,7.2c-1.3,1.3-2.5,1.5-3.8,1.6l-0.1-2c1,0,1.8-0.2,2.6-1c1.2-1.2,1-3-0.2-4.2
		c-1.2-1.2-3-1.4-4.2-0.2c-0.8,0.8-1,1.6-1,2.6l-2-0.1c0-1.5,0.3-2.7,1.7-4C22.8,20,25.9,20.1,27.9,22.1z"/>
	<path d="M21.4,36.7L19,40.5c-0.7,1.1-1.5,1.7-2.4,1.9c-0.8,0.2-1.6,0-2.4-0.5c-1.3-0.8-1.7-2.1-1.5-3.4l-4.2,0.2l1.3-2.1l3.8-0.2
		l0.9-1.4l-2.7-1.7l1.1-1.8L21.4,36.7z M15.1,37.8c-0.6,0.9-0.4,1.7,0.3,2.1c0.8,0.5,1.5,0.2,2.1-0.7l1.1-1.8L16.2,36L15.1,37.8z"/>
	<path d="M9.9,47.2c2.7,0.9,4.1,3.7,3.2,6.5c-0.9,2.9-3.8,4.2-6.4,3.4c-2.7-0.9-4.1-3.7-3.2-6.5C4.4,47.7,7.3,46.3,9.9,47.2z
		 M7.4,54.9c1.6,0.5,3.3-0.2,3.9-1.9c0.5-1.7-0.4-3.2-2-3.8c-1.6-0.5-3.3,0.2-3.9,1.9S5.8,54.4,7.4,54.9z"/>
	<path d="M10.4,64.6l-0.2,2.1l-7.8-0.7L2,71l-2-0.2l0.6-7L10.4,64.6z"/>
	<path d="M10,77.6l0.3,2.1l-7.8,1l0.6,4.8l-1.9,0.2l-0.9-7L10,77.6z"/>
	<path d="M15.1,98.5l1.8,3.4c1.4,2.7,0.6,5.6-1.9,6.9c-2.4,1.3-5.3,0.4-6.8-2.3L6.4,103L15.1,98.5z M9.9,105.5
		c0.8,1.6,2.4,2.1,4,1.2c1.5-0.8,2.1-2.4,1.2-4l-0.8-1.5L9.2,104L9.9,105.5z"/>
	<path d="M18.9,114.4c2.1-1.9,5.2-1.8,7.3,0.5c2,2.2,1.8,5.4-0.3,7.3c-2.1,1.9-5.2,1.8-7.3-0.5C16.5,119.4,16.8,116.3,18.9,114.4z
		 M24.3,120.5c1.2-1.1,1.5-3,0.3-4.3c-1.2-1.3-3-1.3-4.3-0.1c-1.2,1.1-1.5,3-0.3,4.3C21.2,121.6,23,121.6,24.3,120.5z"/>
	<path d="M32.8,122.1l2,1.2L33,130l5.4-4.5l1.6,1l-1.7,6.8l5.3-4.5l1.9,1.2l-8.1,6.6l-1.6-1l1.6-6.6l-5.3,4.2l-1.6-1L32.8,122.1z"/>
	<path d="M50.8,132l1.9,0.6l2.7,7.1l1.7-5.8l2,0.6l-2.8,9.4l-1.8-0.5l-2.8-7.3l-1.8,6l-2-0.6L50.8,132z"/>
	<path d="M108.5,134.6l0.2-2c1.1,0.1,2.2,0,3.1-0.6c0.7-0.5,1-1.1,0.7-1.6c-0.3-0.5-0.7-0.5-2.3,0.1c-1.9,0.7-3.3,0.9-4.4-0.7
		c-1-1.5-0.4-3.3,1.2-4.4c1.2-0.8,2.5-1.1,3.7-1l0,2c-1.1,0-2,0.1-2.7,0.6c-0.7,0.5-0.8,1-0.6,1.4c0.4,0.5,0.8,0.5,2.5-0.1
		c1.9-0.7,3.3-0.7,4.2,0.8c1.1,1.6,0.4,3.4-1.3,4.5C111.6,134.4,110,134.8,108.5,134.6z"/>
	<path d="M118.3,123.1c-2-1.9-2.2-5-0.1-7.2c1.3-1.3,2.5-1.6,3.8-1.6l0.2,2c-1,0.1-1.8,0.3-2.5,1.1c-1.1,1.2-1,3,0.3,4.2
		c1.2,1.2,3,1.3,4.2,0.1c0.8-0.8,0.9-1.6,1-2.7l2,0c0.1,1.5-0.3,2.7-1.6,4.1C123.4,125.1,120.3,125.1,118.3,123.1z"/>
	<path d="M124.5,108.4l2.3-3.9c0.6-1.1,1.4-1.7,2.3-1.9c0.7-0.2,1.6,0,2.4,0.4c1.4,0.8,1.8,2.1,1.5,3.4l4.2-0.3l-1.3,2.2l-3.8,0.2
		l-0.9,1.4l2.7,1.6l-1.1,1.9L124.5,108.4z M130.8,107.1c0.5-0.9,0.4-1.7-0.4-2.1c-0.8-0.5-1.5-0.2-2.1,0.7l-1.1,1.8l2.4,1.4
		L130.8,107.1z"/>
	<path d="M135.8,97.6c-2.7-0.8-4.2-3.6-3.3-6.5c0.9-2.9,3.7-4.3,6.4-3.5c2.7,0.8,4.2,3.6,3.3,6.5C141.3,97,138.5,98.5,135.8,97.6z
		 M138.2,89.8c-1.6-0.5-3.3,0.3-3.8,1.9c-0.5,1.7,0.5,3.2,2.1,3.7c1.6,0.5,3.3-0.3,3.8-1.9C140.8,91.9,139.8,90.3,138.2,89.8z"/>
	<path d="M135,80.2l0.1-2.2l7.8,0.5l0.3-4.9l2,0.1l-0.4,7L135,80.2z"/>
	<path d="M135.1,67.3l-0.3-2.1l7.8-1.1l-0.7-4.8l1.9-0.3l1,7L135.1,67.3z"/>
	<path d="M129.6,46.5l-1.8-3.3c-1.5-2.7-0.7-5.6,1.8-6.9c2.4-1.3,5.3-0.5,6.8,2.2l1.8,3.3L129.6,46.5z M134.6,39.3
		c-0.9-1.5-2.5-2-4-1.2c-1.5,0.8-2,2.5-1.2,4l0.8,1.5l5.2-2.9L134.6,39.3z"/>
	<path d="M125.5,30.6c-2,1.9-5.2,1.9-7.3-0.3c-2.1-2.2-1.9-5.3,0.1-7.3c2-1.9,5.2-1.9,7.3,0.3C127.7,25.6,127.5,28.7,125.5,30.6z
		 M119.9,24.7c-1.2,1.2-1.4,3-0.2,4.3s3,1.2,4.3,0c1.2-1.2,1.4-3,0.2-4.3C123,23.4,121.2,23.5,119.9,24.7z"/>
	<path d="M111.3,23.2l-2-1.2l1.7-6.7l-5.3,4.6l-1.6-1l1.6-6.8l-5.2,4.6l-1.9-1.2l8-6.7l1.6,1l-1.4,6.6L112,12l1.6,1L111.3,23.2z"/>
	<path d="M93.2,13.7l-1.9-0.5l-2.8-7l-1.6,5.8l-2.1-0.6l2.6-9.5l1.8,0.5l2.9,7.3l1.6-6l2.1,0.6L93.2,13.7z"/>
</g>
</svg>
