<svg version="1.1" id="Layer_1" xmlns="http://www.w3.org/2000/svg" xmlns:xlink="http://www.w3.org/1999/xlink" x="0px" y="0px" viewBox="0 0 118.936 118.134" style="enable-background:new 0 0 118.936 118.134;" xml:space="preserve">
<g>
	<path d="M71.539,111.481l1.572-0.31c-0.332-1.529-1.765-2.301-3.546-1.951c-1.773,0.349-2.908,1.576-2.624,3.015
		c0.243,1.233,1.383,1.816,2.858,1.96l0.477,0.041c1.343,0.139,1.898,0.399,2.016,0.997c0.119,0.606-0.333,1.221-1.324,1.416
		c-0.941,0.185-1.707-0.133-1.93-1.001l-1.614,0.318c0.389,1.817,2.067,2.42,3.818,2.075c1.894-0.373,2.949-1.585,2.644-3.136
		c-0.261-1.325-1.304-1.854-3.017-2.063l-0.467-0.056c-1.05-0.128-1.738-0.287-1.852-0.869c-0.118-0.598,0.403-1.126,1.281-1.299
		C70.73,110.442,71.326,110.772,71.539,111.481z"></path>
	<path d="M85.855,106.344c-1.163-1.471-2.89-1.804-4.473-1.06c-2.011,0.946-2.776,3.159-1.574,5.714
		c1.197,2.544,3.383,3.354,5.395,2.408c1.583-0.745,2.421-2.27,2.043-4.087l-1.572,0.537c0.19,1.005-0.277,1.776-1.119,2.172
		c-1.139,0.536-2.355,0.094-3.222-1.747c-0.868-1.845-0.441-3.083,0.698-3.619c0.842-0.396,1.756-0.265,2.42,0.545L85.855,106.344z"></path>
	<path d="M98.55,104.611l1.45-1.176l-3.665-1.649c0.406-0.894,0.371-1.871-0.392-2.811c-1.023-1.261-2.489-1.472-4.095-0.17
		l-2.5,2.028l5.5,6.781l1.308-1.061l-2.057-2.536l1.136-0.921L98.55,104.611z M91.548,100.871l1.192-0.967
		c0.765-0.62,1.444-0.452,1.931,0.147c0.526,0.649,0.454,1.317-0.298,1.927l-1.162,0.943L91.548,100.871z"></path>
	<path d="M106.109,89.67c-2.259-1.72-4.569-1.413-5.892,0.325c-1.328,1.744-1.017,4.063,1.243,5.783
		c2.249,1.712,4.557,1.387,5.885-0.357C108.667,93.682,108.359,91.382,106.109,89.67z M105.091,91.008
		c1.636,1.246,1.795,2.506,1.044,3.492c-0.748,0.982-2.021,1.185-3.657-0.06c-1.636-1.246-1.8-2.542-1.052-3.524
		C102.177,89.929,103.455,89.762,105.091,91.008z"></path>
	<path d="M114.239,80.043l-1.483,3.391l-6.703-2.933l-0.675,1.543l8,3.5l2.158-4.934L114.239,80.043z"></path>
	<path d="M117.506,67.618l-0.715,3.629l-7.174-1.414l-0.325,1.651l8.562,1.688l1.041-5.28L117.506,67.618z"></path>
	<path d="M118.342,47.429c-0.52-2.542-2.441-3.739-5.117-3.192c-2.672,0.546-3.965,2.4-3.453,4.905l0.602,2.943l8.562-1.75
		L118.342,47.429z M111.22,48.942c-0.332-1.622,0.402-2.656,2.342-3.053c1.94-0.396,3.029,0.265,3.366,1.912l0.24,1.175
		l-5.703,1.166L111.22,48.942z"></path>
	<path d="M107.798,31.221c-2.554,1.252-3.316,3.458-2.353,5.423c0.967,1.972,3.183,2.734,5.737,1.482
		c2.543-1.246,3.287-3.459,2.321-5.431C112.54,30.731,110.341,29.975,107.798,31.221z M108.54,32.734
		c1.85-0.907,3.05-0.483,3.596,0.632c0.544,1.111,0.155,2.342-1.695,3.248c-1.85,0.906-3.084,0.471-3.629-0.639
		C106.266,34.86,106.69,33.64,108.54,32.734z"></path>
	<path d="M100.451,28.008l1.039,1.167l5.021-7.509l-1.144-1.285l-5.516,2.76l-0.045-0.051l3.382-5.158l-1.144-1.285l-8.044,4.113
		l1.042,1.17l5.744-2.998l0.051,0.057l-3.613,5.393l1.042,1.17l5.769-2.951l0.048,0.054L100.451,28.008z"></path>
	<path d="M83.932,13.858l1.419,0.902l3.143-4.944l0.061,0.039l-0.125,6.862l1.404,0.892l4.688-7.375l-1.422-0.904l-3.136,4.933
		l-0.061-0.039l0.111-6.856L88.62,6.483L83.932,13.858z"></path>
	<path d="M67.697,3.934c-0.167,0.919,0.407,1.765,1.335,1.933c0.915,0.166,1.767-0.42,1.934-1.339
		c0.168-0.923-0.424-1.768-1.339-1.934C68.699,2.426,67.865,3.011,67.697,3.934z"></path>
	<path d="M47.34,6.662l-1.572,0.316c0.337,1.529,1.775,2.297,3.556,1.939c1.773-0.356,2.904-1.588,2.616-3.026
		c-0.248-1.233-1.39-1.813-2.867-1.952L48.595,3.9c-1.345-0.135-1.901-0.393-2.021-0.99c-0.122-0.606,0.329-1.223,1.319-1.422
		c0.941-0.189,1.709,0.127,1.935,0.995l1.614-0.324c-0.395-1.817-2.076-2.415-3.828-2.063c-1.894,0.38-2.946,1.596-2.635,3.147
		c0.266,1.325,1.311,1.851,3.026,2.054l0.467,0.054c1.051,0.124,1.74,0.281,1.856,0.863c0.12,0.598-0.4,1.128-1.278,1.305
		C48.153,7.699,47.556,7.371,47.34,6.662z"></path>
	<path d="M33.008,11.795c1.163,1.471,2.89,1.804,4.473,1.06c2.011-0.946,2.776-3.159,1.574-5.714
		c-1.197-2.544-3.383-3.354-5.395-2.408c-1.583,0.745-2.421,2.27-2.043,4.087l1.572-0.537C33,7.278,33.467,6.506,34.308,6.111
		c1.139-0.536,2.355-0.094,3.222,1.747c0.868,1.845,0.441,3.083-0.698,3.619c-0.842,0.396-1.756,0.265-2.42-0.545L33.008,11.795z"></path>
	<path d="M20.321,13.543l-1.45,1.176l3.665,1.649c-0.406,0.894-0.371,1.871,0.392,2.811c1.023,1.262,2.49,1.472,4.095,0.17
		l2.5-2.028l-5.5-6.781l-1.308,1.061l2.057,2.536l-1.136,0.921L20.321,13.543z M27.323,17.283l-1.192,0.967
		c-0.765,0.62-1.444,0.452-1.931-0.147c-0.526-0.649-0.454-1.317,0.298-1.927l1.162-0.943L27.323,17.283z"></path>
	<path d="M12.773,28.543c2.27,1.72,4.585,1.407,5.908-0.338c1.328-1.752,1.011-4.077-1.259-5.797
		c-2.259-1.712-4.573-1.382-5.901,0.371C10.199,24.524,10.513,26.83,12.773,28.543z M13.791,27.198
		c-1.644-1.246-1.806-2.509-1.055-3.5c0.748-0.987,2.024-1.193,3.667,0.053c1.643,1.245,1.81,2.545,1.062,3.532
		C16.716,28.274,15.435,28.444,13.791,27.198z"></path>
	<path d="M4.667,38.113l1.483-3.391l6.703,2.933l0.675-1.543l-8-3.5L3.37,37.545L4.667,38.113z"></path>
	<path d="M1.425,50.56l0.702-3.629l7.174,1.388l0.319-1.652l-8.562-1.656l-1.021,5.28L1.425,50.56z"></path>
	<path d="M0.594,70.755c0.52,2.542,2.441,3.739,5.117,3.192c2.672-0.546,3.965-2.4,3.453-4.905l-0.602-2.943L0,67.849L0.594,70.755z
		 M7.715,69.243c0.332,1.622-0.402,2.656-2.342,3.053c-1.94,0.396-3.029-0.265-3.366-1.912l-0.24-1.175l5.703-1.166L7.715,69.243z"></path>
	<path d="M11.153,86.957c2.555-1.252,3.316-3.458,2.353-5.423c-0.967-1.972-3.183-2.734-5.737-1.482
		c-2.543,1.246-3.288,3.459-2.321,5.431C6.411,87.448,8.61,88.203,11.153,86.957z M10.412,85.444
		c-1.85,0.906-3.05,0.483-3.596-0.632c-0.544-1.111-0.155-2.342,1.695-3.248c1.85-0.907,3.084-0.471,3.629,0.639
		C12.686,83.319,12.262,84.538,10.412,85.444z"></path>
	<path d="M18.484,90.154l-1.039-1.162l-4.99,7.501l1.144,1.279l5.495-2.766l0.045,0.051l-3.36,5.153l1.144,1.279l8.013-4.121
		l-1.042-1.165l-5.722,3.003l-0.051-0.057l3.59-5.387l-1.042-1.165l-5.747,2.957l-0.048-0.054L18.484,90.154z"></path>
	<path d="M35.036,104.283l-1.419-0.896l-3.122,4.944l-0.061-0.039l0.104-6.849l-1.404-0.887l-4.656,7.375l1.423,0.898l3.115-4.934
		l0.061,0.039l-0.09,6.843l1.394,0.88L35.036,104.283z"></path>
	<path d="M51.306,114.185c0.164-0.919-0.413-1.762-1.341-1.927c-0.915-0.163-1.764,0.426-1.928,1.345
		c-0.164,0.923,0.43,1.765,1.345,1.928C50.309,115.696,51.141,115.109,51.306,114.185z"></path>
</g>
</svg>