<?xml version="1.0" encoding="utf-8"?>
<!-- Generator: Adobe Illustrator 24.1.2, SVG Export Plug-In . SVG Version: 6.00 Build 0)  -->
<svg version="1.1" id="Слой_1" xmlns="http://www.w3.org/2000/svg" xmlns:xlink="http://www.w3.org/1999/xlink" x="0px" y="0px"
	 viewBox="0 0 145 145" style="enable-background:new 0 0 145 145;" xml:space="preserve">
<style type="text/css">
	.st0{fill:#1D1D1B;}
</style>
<circle class="st0" cx="5.2" cy="57.9" r="1.5"/>
<circle class="st0" cx="95.5" cy="136.8" r="1.5"/>
<circle class="st0" cx="118" cy="22.3" r="1.5"/>
<g>
	<path d="M9.7,72.6l0.3,4.5c0.1,1.2-0.2,2.2-0.8,2.9c-0.5,0.6-1.3,0.9-2.2,1c-1.6,0.1-2.6-0.7-3.2-1.9l-3.3,2.6l-0.2-2.5l3-2.3
		l-0.1-1.7L0,75.4l-0.1-2.2L9.7,72.6z M5.2,77.2c0.1,1,0.7,1.6,1.5,1.6C7.6,78.7,8.1,78.1,8,77l-0.1-2.1l-2.8,0.2L5.2,77.2z"/>
	<path d="M6.3,87c2.7-0.8,5.5,0.6,6.4,3.5S12,96.2,9.3,97c-2.7,0.8-5.5-0.6-6.4-3.5S3.6,87.8,6.3,87z M8.6,94.8
		c1.6-0.5,2.6-2.1,2.1-3.7s-2.2-2.4-3.8-1.9c-1.6,0.5-2.6,2.1-2.1,3.7S7,95.3,8.6,94.8z"/>
	<path d="M11.7,102.5c2.4-1.4,5.5-0.7,7,1.9s0.7,5.6-1.7,7.1c-2.4,1.4-5.5,0.7-7-1.9C8.4,107,9.3,103.9,11.7,102.5z M15.9,109.5
		c1.4-0.9,2-2.6,1.1-4.1c-0.9-1.5-2.7-1.8-4.2-1c-1.4,0.9-2,2.6-1.1,4.1S14.4,110.4,15.9,109.5z"/>
	<path d="M24.5,113.1l1.6,1.7l-1.1,4.7l4.8-1.1l1.6,1.7l-7,6.9l-1.5-1.5l4.6-4.5l-4.9,1l0,0l1-4.9l-4.5,4.5l-1.5-1.5L24.5,113.1z"/>
	<path d="M36.8,126.4l-2.5-1.6l1.1-1.7l6.8,4.4l-1.1,1.7l-2.5-1.6l-4.2,6.6l-1.8-1.2L36.8,126.4z"/>
	<path d="M44.2,134.1c1-2.6,3.8-4,6.7-2.9c2.8,1,4.1,3.9,3.1,6.6c-1,2.6-3.8,4-6.7,2.9S43.2,136.8,44.2,134.1z M51.9,137
		c0.6-1.6-0.1-3.3-1.7-3.9c-1.6-0.6-3.2,0.3-3.8,1.9c-0.6,1.6,0.1,3.3,1.7,3.9C49.7,139.4,51.3,138.6,51.9,137z"/>
	<path d="M60,139.8l0.7-5.6l2.1,0.3l-0.7,5.5c-0.2,1.6,0.5,2.5,1.8,2.7c1.3,0.2,2.2-0.5,2.4-2.1L67,135l2.1,0.3l-0.7,5.5
		c-0.4,2.9-2.2,4.2-4.8,3.9C61.1,144.3,59.7,142.7,60,139.8z"/>
	<path d="M74.8,135.3l4.5-0.4c1.2-0.1,2.2,0.1,2.9,0.7c0.6,0.5,1,1.2,1.1,2.2c0.2,1.6-0.6,2.6-1.8,3.2l2.7,3.3l-2.5,0.2l-2.4-2.9
		l-1.7,0.2l0.3,3.1l-2.1,0.2L74.8,135.3z M79.5,139.6c1-0.1,1.6-0.7,1.5-1.6c-0.1-0.9-0.8-1.3-1.8-1.2l-2.1,0.2l0.3,2.8L79.5,139.6z
		"/>
	<path d="M102.9,127.5l3.8-2.4c1.1-0.7,2.1-0.9,2.9-0.7c0.8,0.2,1.4,0.7,1.9,1.5c0.8,1.3,0.7,2.6-0.1,3.7l3.9,1.7l-2.1,1.4l-3.5-1.5
		l-1.4,0.9l1.7,2.6l-1.8,1.2L102.9,127.5z M109.1,129.2c0.9-0.6,1.1-1.4,0.6-2.1c-0.5-0.8-1.3-0.8-2.2-0.3l-1.8,1.2l1.5,2.4
		L109.1,129.2z"/>
	<path d="M117.1,123.6c-2-1.9-2.1-5.1,0-7.3c2.1-2.2,5.2-2.1,7.3-0.2c2,1.9,2.1,5.1,0,7.3C122.3,125.5,119.1,125.5,117.1,123.6z
		 M122.8,117.7c-1.2-1.2-3.1-1.3-4.3,0s-1.1,3.1,0.1,4.3c1.2,1.2,3.1,1.3,4.3,0S124,118.9,122.8,117.7z"/>
	<path d="M128.1,111.4c-2.4-1.4-3.2-4.5-1.7-7.1c1.5-2.6,4.6-3.3,7-1.9c2.4,1.4,3.2,4.5,1.7,7.1S130.5,112.8,128.1,111.4z
		 M132.2,104.3c-1.4-0.9-3.3-0.5-4.2,1c-0.9,1.5-0.3,3.2,1.2,4.1c1.4,0.9,3.3,0.5,4.2-1C134.3,106.9,133.7,105.2,132.2,104.3z"/>
	<path d="M131.2,95.1l0.7-2.2l4.7-1.3l-3.2-3.6l0.7-2.2l9.4,2.8l-0.6,2.1l-6.1-1.8l3.2,3.8l0,0.1l-4.8,1.4l6.1,1.8l-0.6,2
		L131.2,95.1z"/>
	<path d="M137,77.8l-0.2,3l-2-0.1l0.5-8.1l2,0.1l-0.2,3l7.8,0.5l-0.1,2.2L137,77.8z"/>
	<path d="M140.1,67.6c-2.8,0.4-5.3-1.4-5.8-4.4c-0.4-3,1.5-5.5,4.3-5.9c2.8-0.4,5.3,1.4,5.8,4.4C144.8,64.7,142.9,67.2,140.1,67.6z
		 M138.9,59.5c-1.7,0.2-2.9,1.7-2.6,3.4c0.3,1.7,1.8,2.7,3.5,2.5c1.7-0.2,2.9-1.7,2.6-3.4C142.1,60.3,140.6,59.3,138.9,59.5z"/>
	<path d="M137.5,51l-5.2,2.1l-0.8-2l5.1-2.1c1.5-0.6,1.9-1.6,1.5-2.9c-0.5-1.2-1.5-1.7-3-1.1l-5.2,2.1l-0.8-2l5.1-2.1
		C137,42,139,43,140,45.5C140.9,47.9,140.2,50,137.5,51z"/>
	<path d="M126.4,40.3l-2.5-3.7c-0.7-1-1-2-0.8-2.9c0.1-0.8,0.6-1.4,1.4-2c1.3-0.9,2.6-0.8,3.7,0l1.5-4l1.4,2.1l-1.4,3.5l0.9,1.4
		l2.6-1.8l1.2,1.8L126.4,40.3z M127.9,34c-0.6-0.9-1.4-1-2.1-0.6c-0.8,0.5-0.8,1.3-0.2,2.2l1.2,1.8l2.3-1.6L127.9,34z"/>
	<path d="M106.1,19.4l-3.9-2.2c-1.1-0.6-1.8-1.4-2-2.2c-0.2-0.7-0.1-1.6,0.4-2.4c0.8-1.4,2-1.8,3.3-1.7l-0.4-4.2l2.2,1.2l0.4,3.8
		l1.5,0.8l1.5-2.7l1.9,1L106.1,19.4z M104.5,13.1c-0.9-0.5-1.7-0.3-2.1,0.4c-0.4,0.8-0.1,1.5,0.8,2l1.9,1l1.4-2.5L104.5,13.1z"/>
	<path d="M95.7,8.8c-0.8,2.7-3.5,4.3-6.4,3.5c-2.9-0.8-4.4-3.6-3.6-6.3c0.8-2.7,3.5-4.3,6.4-3.5C95,3.3,96.5,6.1,95.7,8.8z
		 M87.9,6.6c-0.5,1.6,0.4,3.3,2,3.8c1.7,0.5,3.2-0.5,3.7-2.2c0.5-1.6-0.4-3.3-2-3.8S88.3,4.9,87.9,6.6z"/>
	<path d="M79.8,5.1c-0.1,2.8-2.3,5-5.4,4.9c-3-0.1-5.1-2.4-5-5.2c0.1-2.8,2.3-5,5.4-4.9C77.7,0,79.8,2.3,79.8,5.1z M71.6,4.8
		c0,1.7,1.1,3.1,2.9,3.2c1.7,0.1,3-1.3,3-3c0-1.7-1.1-3.1-2.9-3.2C72.9,1.8,71.6,3.1,71.6,4.8z"/>
	<path d="M64,10.2l-2.3,0.5l-3.4-3.5l-1.6,4.6l-2.3,0.5l-2.1-9.6l2.1-0.5l1.3,6.3l1.8-4.7l0.1,0l3.5,3.5L59.9,1l2.1-0.4L64,10.2z"/>
	<path d="M46.1,13.4l2.7-1.3l0.8,1.8l-7.4,3.4l-0.8-1.8l2.7-1.3l-3.3-7.1l2-0.9L46.1,13.4z"/>
	<path d="M35.6,15.6c1.7,2.2,1.3,5.4-1.1,7.2c-2.4,1.8-5.5,1.4-7.2-0.9c-1.7-2.2-1.3-5.4,1.1-7.2S33.9,13.3,35.6,15.6z M29.2,20.5
		c1,1.3,2.8,1.7,4.2,0.6c1.4-1.1,1.5-2.9,0.5-4.2c-1-1.3-2.8-1.7-4.2-0.6C28.3,17.4,28.1,19.2,29.2,20.5z"/>
	<path d="M22.4,25.9l4.3,3.6l-1.4,1.7l-4.3-3.5c-1.2-1-2.4-0.9-3.2,0.1c-0.8,1-0.7,2.1,0.5,3.1l4.3,3.6L21.3,36L17,32.5
		c-2.3-1.9-2.4-4.1-0.7-6.1C18,24.4,20.2,24,22.4,25.9z"/>
	<path d="M18.3,40.8l-2,4c-0.6,1.1-1.3,1.8-2.2,2.1c-0.7,0.2-1.6,0.2-2.4-0.3c-1.4-0.7-1.9-1.9-1.8-3.2l-4.2,0.6l1.1-2.2l3.8-0.5
		l0.8-1.5l-2.8-1.4l1-1.9L18.3,40.8z M12.1,42.5c-0.5,0.9-0.2,1.7,0.5,2.1c0.8,0.4,1.5,0.1,2-0.9l1-1.9l-2.5-1.3L12.1,42.5z"/>
</g>
</svg>
