<?xml version="1.0" encoding="utf-8"?>
<!-- Generator: Adobe Illustrator 24.1.2, SVG Export Plug-In . SVG Version: 6.00 Build 0)  -->
<svg version="1.1" id="Слой_1" xmlns="http://www.w3.org/2000/svg" xmlns:xlink="http://www.w3.org/1999/xlink" x="0px" y="0px"
	 viewBox="0 0 145 145" style="enable-background:new 0 0 145 145;" xml:space="preserve">
<g>
	<path d="M97,132l1.9-0.9l3.4,7l4.4-2.1l0.9,1.8l-6.3,3.1L97,132z"/>
	<path d="M109.5,131c-1.7-2.2-1.3-5.4,1.1-7.2s5.5-1.4,7.2,0.9c1.7,2.2,1.3,5.4-1.1,7.2S111.2,133.2,109.5,131z M116,126
		c-1-1.3-2.9-1.7-4.2-0.6c-1.4,1.1-1.5,2.9-0.5,4.2c1,1.3,2.9,1.7,4.2,0.6C116.9,129.2,117,127.4,116,126z"/>
	<path d="M119.9,115.1l1.3-1.5l10.3,3.1l-1.4,1.7l-2.3-0.7l-2.7,3.2l1.1,2.1l-1.4,1.7L119.9,115.1z M125.8,117.1l-3.3-1l1.6,3
		L125.8,117.1z"/>
	<path d="M126.3,106.6l1.7-3.4c1.4-2.7,4.3-3.7,6.7-2.4c2.5,1.3,3.4,4.1,2,6.9l-1.7,3.4L126.3,106.6z M135.1,106.8
		c0.8-1.6,0.3-3.2-1.3-4c-1.5-0.8-3.2-0.3-4,1.3l-0.8,1.5l5.3,2.7L135.1,106.8z"/>
	<path d="M132.1,93.7l0.6-2.1l9.4,2.9l-0.6,2.1L132.1,93.7z"/>
	<path d="M134.2,86.2l0.2-2l6.5-3.8l-6-0.7l0.3-2.1l9.7,1.2l-0.2,1.8l-6.8,4l6.2,0.8l-0.3,2.1L134.2,86.2z"/>
	<path d="M140.2,72.2c-2.8,0.3-5.3-1.7-5.5-4.6c-0.2-1.8,0.2-2.9,1-4l1.8,1.2c-0.6,0.8-0.8,1.5-0.7,2.6c0.2,1.6,1.7,2.7,3.3,2.5
		c1.8-0.2,3-1.5,2.8-3.3c-0.1-0.8-0.3-1.5-0.8-2l-1.4,0.1l0.2,2.2l-1.9,0.2l-0.4-4.2l4.2-0.4c0.9,0.9,1.8,2.2,2,4
		C145.1,69.6,143.1,71.9,140.2,72.2z"/>
	<path d="M113.7,26.8l-1.7-1.3l4.8-6.2l-3.8-3l1.2-1.5l5.5,4.4L113.7,26.8z"/>
	<path d="M107.3,16c-1.2,2.5-4.2,3.6-6.9,2.2c-2.7-1.4-3.6-4.3-2.4-6.9c1.2-2.5,4.2-3.6,6.9-2.2C107.6,10.5,108.6,13.5,107.3,16z
		 M100,12.4c-0.8,1.5-0.3,3.3,1.3,4.1c1.6,0.8,3.2,0.1,4-1.4c0.8-1.5,0.3-3.3-1.3-4.1S100.8,10.8,100,12.4z"/>
	<path d="M88.5,13.6l-1.9-0.5L84.8,2.5L87,3.1l0.3,2.3l4,1l1.4-1.9L94.9,5L88.5,13.6z M87.7,7.5l0.5,3.4l2-2.8L87.7,7.5z"/>
	<path d="M78,11.6l-3.8-0.1c-3.1-0.1-5.2-2.2-5.1-5c0.1-2.8,2.2-4.9,5.3-4.8l3.8,0.1L78,11.6z M74.4,3.7c-1.8,0-3,1.1-3,2.9
		c0,1.7,1.1,3,2.9,3l1.7,0L76,3.7L74.4,3.7z"/>
	<path d="M63.9,12.1l-2.1,0.3l-1.5-9.7l2.1-0.3L63.9,12.1z"/>
	<path d="M56.3,13.4l-1.9,0.6l-6.3-4.2l2,5.7l-2,0.7L44.8,7l1.7-0.6l6.5,4.4l-2-5.9l2-0.7L56.3,13.4z"/>
	<path d="M41,14.2c1.5,2.4,0.8,5.5-1.7,7c-1.5,0.9-2.7,1.1-4,0.9l0.3-2.1c1,0.1,1.7,0.1,2.7-0.5c1.3-0.8,1.7-2.7,0.8-4.1
		c-0.9-1.5-2.7-2-4.2-1.1c-0.7,0.4-1.2,0.9-1.4,1.6l0.7,1.2l1.8-1.1l1,1.6l-3.6,2.2l-2.2-3.6c0.4-1.3,1.2-2.6,2.7-3.5
		C36.5,11,39.5,11.7,41,14.2z"/>
	<path d="M11.8,57.9L11.4,60l-7.7-1.6l-1,4.8l-1.9-0.4l1.5-6.9L11.8,57.9z"/>
	<path d="M5,68.4c2.8,0,5,2.3,5,5.3c0,3-2.3,5.2-5.2,5.1c-2.8,0-5-2.3-5-5.3C-0.1,70.5,2.2,68.3,5,68.4z M4.8,76.5
		c1.7,0,3.1-1.2,3.1-2.9c0-1.7-1.3-3-3-3c-1.7,0-3.1,1.2-3.1,2.9S3.1,76.5,4.8,76.5z"/>
	<path d="M11,86.4l0.4,1.9l-8.8,6.2l-0.5-2.2l2-1.3l-0.9-4.1L1,86.5l-0.5-2.1L11,86.4z M5.9,89.8l2.8-1.9l-3.4-0.6L5.9,89.8z"/>
	<path d="M13.8,96.7l1.6,3.5c1.3,2.8,0.3,5.6-2.2,6.8c-2.5,1.2-5.3,0.1-6.6-2.7l-1.6-3.5L13.8,96.7z M8.3,103.4
		c0.7,1.6,2.3,2.2,3.9,1.4c1.6-0.7,2.2-2.3,1.4-3.9l-0.7-1.5l-5.4,2.5L8.3,103.4z"/>
	<path d="M20.4,109.2l1.2,1.8l-8,5.6l-1.2-1.8L20.4,109.2z"/>
	<path d="M25,115.4l1.4,1.4l-1,7.5l4.3-4.3l1.5,1.5l-6.9,6.9l-1.3-1.3l1.1-7.8l-4.4,4.4l-1.5-1.5L25,115.4z"/>
	<path d="M32.3,128.8c1.5-2.4,4.5-3.1,7.1-1.5c1.5,0.9,2.1,1.9,2.5,3.2l-2,0.7c-0.3-0.9-0.7-1.6-1.6-2.2c-1.3-0.8-3.1-0.3-4,1.1
		c-1,1.5-0.6,3.3,0.8,4.2c0.7,0.4,1.4,0.6,2,0.6l0.7-1.2l-1.8-1.2l1-1.6l3.6,2.3l-2.3,3.6c-1.3,0.2-2.9,0-4.4-0.9
		C31.4,134.2,30.8,131.3,32.3,128.8z"/>
</g>
<circle cx="17.1" cy="35" r="1.5"/>
<circle cx="69.1" cy="141" r="1.5"/>
<circle cx="132.1" cy="42" r="1.5"/>
</svg>
