<svg xmlns="http://www.w3.org/2000/svg" xmlns:xlink="http://www.w3.org/1999/xlink" viewBox="0 0 436.54 801.37"><defs><style>.cls-1{fill:none;}.cls-2{opacity:0.5;}.cls-3{clip-path:url(#clip-path);}.cls-4{fill:#fff;}.cls-5{fill:url(#Безымянный_градиент_15);}.cls-6{fill:#1f1f1f;}</style><clipPath id="clip-path" transform="translate(1.15 88.12)"><rect class="cls-1" width="430.87" height="606.61"/></clipPath><linearGradient id="Безымянный_градиент_15" x1="172.4" y1="460.69" x2="270.15" y2="362.95" gradientUnits="userSpaceOnUse"><stop offset="0" stop-color="#7d5532"/><stop offset="0.2" stop-color="#805835"/><stop offset="0.37" stop-color="#88623d"/><stop offset="0.52" stop-color="#96734b"/><stop offset="0.66" stop-color="#aa8b5e"/><stop offset="0.8" stop-color="#c4aa77"/><stop offset="0.93" stop-color="#e4cf95"/><stop offset="1" stop-color="#f8e7a9"/></linearGradient></defs><g id="Слой_2" data-name="Слой 2"><g id="Слой_1-2" data-name="Слой 1"><g class="cls-2"><g class="cls-3"><path class="cls-4" d="M349.09,27.7l-4.76,0c-24.95-.28-46.57-2.65-66.09-7.24-31.57-7.43-60.93-21.5-86-34.1-6.92-3.48-14-7.09-20.8-10.58C116.81-52.21,60.28-81.12-1.15-84v-4.15c62.33,2.89,119.45,32,174.51,60.17,6.82,3.49,13.87,7.09,20.77,10.57C219-4.89,248.06,9.06,279.19,16.38c19.22,4.52,40.54,6.86,65.19,7.13,35,.4,62.79-3.56,86.95-12.43,1.27-.47,2.81-.94,4.06-1.44v4.27a26.33,26.33,0,0,1-2.7,1.1C409.17,23.63,382.37,27.7,349.09,27.7Z" transform="translate(1.15 88.12)"/><path class="cls-4" d="M349.09,47.86l-4.76,0c-24.95-.28-46.57-2.65-66.09-7.24-31.57-7.43-60.93-21.5-86-34.1-6.92-3.48-14-7.09-20.8-10.58C116.81-32,60.28-61-1.15-63.81V-68c62.33,2.89,119.45,32,174.51,60.18,6.82,3.48,13.87,7.09,20.77,10.56,24.83,12.5,53.93,26.44,85.06,33.77,19.22,4.52,40.54,6.85,65.19,7.13,35,.39,62.79-3.57,86.95-12.44,1.27-.46,2.81-.94,4.06-1.43v4.26a22.47,22.47,0,0,1-2.7,1.1C409.17,43.79,382.37,47.86,349.09,47.86Z" transform="translate(1.15 88.12)"/><path class="cls-4" d="M349.09,68l-4.76,0c-24.95-.28-46.57-2.65-66.09-7.24-31.57-7.43-60.93-21.49-86-34.09-6.92-3.49-14-7.09-20.8-10.58C116.81-11.88,60.28-40.8-1.15-43.64v-4.15c62.33,2.89,119.45,32,174.51,60.17,6.82,3.49,13.87,7.09,20.77,10.57C219,35.44,248.06,49.39,279.19,56.71c19.22,4.52,40.54,6.85,65.19,7.13,35,.39,62.79-3.56,86.95-12.43,1.27-.47,2.81-.95,4.06-1.44v4.26a22.47,22.47,0,0,1-2.7,1.1C409.17,64,382.37,68,349.09,68Z" transform="translate(1.15 88.12)"/><path class="cls-4" d="M349.09,88.19l-4.76,0c-24.95-.28-46.57-2.65-66.09-7.24-31.57-7.43-60.93-21.5-86-34.1-6.92-3.48-14-7.09-20.8-10.58C116.81,8.28,60.28-20.63-1.15-23.48v-4.15c62.33,2.89,119.45,32,174.51,60.17,6.82,3.49,13.87,7.09,20.77,10.57C219,55.6,248.06,69.55,279.19,76.87c19.22,4.52,40.54,6.86,65.19,7.14,35,.39,62.79-3.57,86.95-12.44,1.27-.46,2.81-.94,4.06-1.44V74.4a26.33,26.33,0,0,1-2.7,1.1C409.17,84.12,382.37,88.19,349.09,88.19Z" transform="translate(1.15 88.12)"/><path class="cls-4" d="M349.09,108.35l-4.76,0c-24.95-.28-46.57-2.65-66.09-7.24-31.57-7.43-60.93-21.5-86-34.1-6.92-3.48-14-7.09-20.8-10.58C116.81,28.44,60.28-.47-1.15-3.32V-7.47c62.33,2.89,119.45,32,174.51,60.18,6.82,3.48,13.87,7.09,20.77,10.56C219,75.77,248.06,89.71,279.19,97c19.22,4.52,40.54,6.85,65.19,7.13,35,.39,62.79-3.57,86.95-12.44,1.27-.46,2.81-.94,4.06-1.43v4.26a22.47,22.47,0,0,1-2.7,1.1C409.17,104.28,382.37,108.35,349.09,108.35Z" transform="translate(1.15 88.12)"/><path class="cls-4" d="M349.09,128.51l-4.76,0c-24.95-.29-46.57-2.66-66.09-7.25-31.57-7.42-60.93-21.49-86-34.09-6.92-3.49-14-7.09-20.8-10.58C116.81,48.61,60.28,19.69-1.15,16.85V12.7c62.33,2.89,119.45,32,174.51,60.17,6.82,3.49,13.87,7.09,20.77,10.57,24.83,12.49,53.93,26.44,85.06,33.76,19.22,4.52,40.54,6.85,65.19,7.13,35,.39,62.79-3.56,86.95-12.43,1.27-.47,2.81-1,4.06-1.44v4.26a22.47,22.47,0,0,1-2.7,1.1C409.17,124.45,382.37,128.51,349.09,128.51Z" transform="translate(1.15 88.12)"/><path class="cls-4" d="M349.09,148.68l-4.76,0c-24.95-.28-46.57-2.65-66.09-7.24-31.57-7.43-60.93-21.5-86-34.1-6.92-3.48-14-7.09-20.8-10.58C116.81,68.77,60.28,39.86-1.15,37V32.86C61.18,35.75,118.3,64.87,173.36,93c6.82,3.49,13.87,7.09,20.77,10.57C219,116.09,248.06,130,279.19,137.36c19.22,4.52,40.54,6.86,65.19,7.14,35,.39,62.79-3.57,86.95-12.44,1.27-.46,2.81-.94,4.06-1.44v4.27a26.33,26.33,0,0,1-2.7,1.1C409.17,144.61,382.37,148.68,349.09,148.68Z" transform="translate(1.15 88.12)"/><path class="cls-4" d="M349.09,168.84l-4.76,0c-24.95-.28-46.57-2.65-66.09-7.24-31.57-7.43-60.93-21.49-86-34.1-6.92-3.48-14-7.09-20.8-10.57C116.81,88.93,60.28,60-1.15,57.17V53C61.18,55.91,118.3,85,173.36,113.2c6.82,3.48,13.87,7.09,20.77,10.56,24.83,12.5,53.93,26.44,85.06,33.77,19.22,4.52,40.54,6.85,65.19,7.13,35,.39,62.79-3.56,86.95-12.44,1.27-.46,2.81-.94,4.06-1.43v4.26a22.47,22.47,0,0,1-2.7,1.1C409.17,164.77,382.37,168.84,349.09,168.84Z" transform="translate(1.15 88.12)"/><path class="cls-4" d="M349.09,189l-4.76,0c-24.95-.29-46.57-2.66-66.09-7.25-31.57-7.42-60.93-21.49-86-34.09-6.92-3.49-14-7.09-20.8-10.58C116.81,109.1,60.28,80.18-1.15,77.34V73.19c62.33,2.89,119.45,32,174.51,60.17,6.82,3.49,13.87,7.09,20.77,10.57,24.83,12.49,53.93,26.44,85.06,33.76,19.22,4.52,40.54,6.85,65.19,7.13,35,.39,62.79-3.56,86.95-12.43,1.27-.47,2.81-.95,4.06-1.44v4.26a22.47,22.47,0,0,1-2.7,1.1C409.17,184.94,382.37,189,349.09,189Z" transform="translate(1.15 88.12)"/><path class="cls-4" d="M349.09,209.17l-4.76,0c-24.95-.28-46.57-2.65-66.09-7.24-31.57-7.43-60.93-21.5-86-34.1-6.92-3.48-14-7.09-20.8-10.58-54.66-28-111.19-56.87-172.62-59.72V93.35c62.33,2.89,119.45,32,174.51,60.17,6.82,3.49,13.87,7.09,20.77,10.57,24.83,12.5,53.93,26.44,85.06,33.76,19.22,4.52,40.54,6.86,65.19,7.14,35,.39,62.79-3.57,86.95-12.44,1.27-.46,2.81-.94,4.06-1.44v4.27a26.33,26.33,0,0,1-2.7,1.1C409.17,205.1,382.37,209.17,349.09,209.17Z" transform="translate(1.15 88.12)"/><path class="cls-4" d="M349.09,229.33l-4.76,0c-24.95-.28-46.57-2.65-66.09-7.24-31.57-7.43-60.93-21.49-86-34.1-6.92-3.48-14-7.09-20.8-10.57-54.66-28-111.19-56.88-172.62-59.73v-4.15c62.33,2.89,119.45,32,174.51,60.18,6.82,3.48,13.87,7.09,20.77,10.56,24.83,12.5,53.93,26.44,85.06,33.77,19.22,4.52,40.54,6.85,65.19,7.13,35,.39,62.79-3.56,86.95-12.44,1.27-.46,2.81-.94,4.06-1.43v4.26a22.47,22.47,0,0,1-2.7,1.1C409.17,225.26,382.37,229.33,349.09,229.33Z" transform="translate(1.15 88.12)"/><path class="cls-4" d="M349.09,249.49l-4.76,0c-24.95-.29-46.57-2.66-66.09-7.25-31.57-7.42-60.93-21.49-86-34.09-6.92-3.48-14-7.09-20.8-10.58-54.66-28-111.19-56.87-172.62-59.72v-4.15c62.33,2.89,119.45,32,174.51,60.17,6.82,3.49,13.87,7.09,20.77,10.57,24.83,12.49,53.93,26.44,85.06,33.76,19.22,4.52,40.54,6.85,65.19,7.13,35,.39,62.79-3.56,86.95-12.43,1.27-.47,2.81-.95,4.06-1.44v4.27a24.18,24.18,0,0,1-2.7,1.09C409.17,245.43,382.37,249.49,349.09,249.49Z" transform="translate(1.15 88.12)"/><path class="cls-4" d="M349.09,269.66l-4.76,0c-24.95-.28-46.57-2.65-66.09-7.24-31.57-7.43-60.93-21.5-86-34.1-6.92-3.48-14-7.09-20.8-10.58C116.81,189.75,60.28,160.84-1.15,158v-4.15c62.33,2.89,119.45,32,174.51,60.17,6.82,3.49,13.87,7.09,20.77,10.57,24.83,12.5,53.93,26.44,85.06,33.76,19.22,4.52,40.54,6.86,65.19,7.14,35,.39,62.79-3.57,86.95-12.44,1.27-.46,2.81-.94,4.06-1.43v4.26a26.33,26.33,0,0,1-2.7,1.1C409.17,265.59,382.37,269.66,349.09,269.66Z" transform="translate(1.15 88.12)"/><path class="cls-4" d="M349.09,289.82l-4.76,0c-24.95-.28-46.57-2.65-66.09-7.24-31.57-7.43-60.93-21.49-86-34.1-6.92-3.48-14-7.09-20.8-10.57C116.81,209.91,60.28,181-1.15,178.15V174c62.33,2.89,119.45,32,174.51,60.18,6.82,3.48,13.87,7.09,20.77,10.56,24.83,12.5,53.93,26.44,85.06,33.77,19.22,4.52,40.54,6.85,65.19,7.13,35,.39,62.79-3.56,86.95-12.43,1.27-.47,2.81-.95,4.06-1.44V276a22.47,22.47,0,0,1-2.7,1.1C409.17,285.75,382.37,289.82,349.09,289.82Z" transform="translate(1.15 88.12)"/><path class="cls-4" d="M349.09,310l-4.76,0c-24.95-.29-46.57-2.66-66.09-7.25-31.57-7.42-60.93-21.49-86-34.09-6.92-3.48-14-7.09-20.8-10.58-54.66-28-111.19-56.87-172.62-59.72v-4.15c62.33,2.89,119.45,32,174.51,60.17,6.82,3.49,13.87,7.09,20.77,10.57,24.83,12.49,53.93,26.44,85.06,33.76,19.22,4.52,40.54,6.85,65.19,7.13,35,.39,62.79-3.56,86.95-12.43,1.27-.47,2.81-.95,4.06-1.44v4.27a26.33,26.33,0,0,1-2.7,1.1C409.17,305.92,382.37,310,349.09,310Z" transform="translate(1.15 88.12)"/><path class="cls-4" d="M349.09,330.15l-4.76,0c-24.95-.28-46.57-2.65-66.09-7.24-31.57-7.43-60.93-21.5-86-34.1-6.92-3.48-14-7.09-20.8-10.58-54.66-28-111.19-56.87-172.62-59.72v-4.15c62.33,2.89,119.45,32,174.51,60.17,6.82,3.49,13.87,7.09,20.77,10.57,24.83,12.5,53.93,26.44,85.06,33.76,19.22,4.52,40.54,6.86,65.19,7.14,35,.39,62.79-3.57,86.95-12.44,1.27-.46,2.81-.94,4.06-1.43v4.26a24.25,24.25,0,0,1-2.7,1.1C409.17,326.08,382.37,330.15,349.09,330.15Z" transform="translate(1.15 88.12)"/><path class="cls-4" d="M349.09,350.31l-4.76,0c-24.95-.28-46.57-2.65-66.09-7.24-31.57-7.43-60.93-21.49-86-34.1-6.92-3.48-14-7.08-20.8-10.57-54.66-28-111.19-56.88-172.62-59.73v-4.15c62.33,2.89,119.45,32,174.51,60.18,6.82,3.48,13.87,7.09,20.77,10.56,24.83,12.5,53.93,26.44,85.06,33.77,19.22,4.52,40.54,6.85,65.19,7.13,35,.39,62.79-3.56,86.95-12.43,1.27-.47,2.81-.95,4.06-1.44v4.26a22.47,22.47,0,0,1-2.7,1.1C409.17,346.24,382.37,350.31,349.09,350.31Z" transform="translate(1.15 88.12)"/><path class="cls-4" d="M349.09,370.47l-4.76,0c-24.95-.29-46.57-2.65-66.09-7.25-31.57-7.42-60.93-21.49-86-34.09-6.92-3.48-14-7.09-20.8-10.58-54.66-28-111.19-56.87-172.62-59.72v-4.15c62.33,2.89,119.45,32,174.51,60.17,6.82,3.49,13.87,7.09,20.77,10.57,24.83,12.49,53.93,26.44,85.06,33.76,19.22,4.52,40.54,6.85,65.19,7.13,35,.4,62.79-3.56,86.95-12.43,1.27-.47,2.81-.95,4.06-1.44v4.27a26.33,26.33,0,0,1-2.7,1.1C409.17,366.41,382.37,370.47,349.09,370.47Z" transform="translate(1.15 88.12)"/><path class="cls-4" d="M349.09,390.64l-4.76,0c-24.95-.28-46.57-2.65-66.09-7.24-31.57-7.43-60.93-21.5-86-34.1-6.92-3.48-14-7.09-20.8-10.58C116.81,310.73,60.28,281.82-1.15,279v-4.15c62.33,2.89,119.45,32,174.51,60.18,6.82,3.48,13.87,7.09,20.77,10.56,24.83,12.5,53.93,26.44,85.06,33.76,19.22,4.52,40.54,6.86,65.19,7.14,35,.39,62.79-3.57,86.95-12.44,1.27-.46,2.81-.94,4.06-1.43v4.26a24.25,24.25,0,0,1-2.7,1.1C409.17,386.57,382.37,390.64,349.09,390.64Z" transform="translate(1.15 88.12)"/><path class="cls-4" d="M349.09,410.8l-4.76,0c-24.95-.28-46.57-2.65-66.09-7.24-31.57-7.43-60.93-21.49-86-34.09-6.92-3.49-14-7.09-20.8-10.58C116.81,330.9,60.28,302-1.15,299.13V295c62.33,2.9,119.45,32,174.51,60.18,6.82,3.48,13.87,7.09,20.77,10.56,24.83,12.5,53.93,26.44,85.06,33.77,19.22,4.52,40.54,6.85,65.19,7.13,35,.39,62.79-3.56,86.95-12.43,1.27-.47,2.81-.95,4.06-1.44V397a22.47,22.47,0,0,1-2.7,1.1C409.17,406.73,382.37,410.8,349.09,410.8Z" transform="translate(1.15 88.12)"/><path class="cls-4" d="M349.09,431c-1.57,0-3.16,0-4.76,0-24.95-.29-46.57-2.65-66.09-7.25-31.57-7.42-60.93-21.49-86-34.09-6.92-3.48-14-7.09-20.8-10.58-54.66-28-111.19-56.87-172.62-59.72v-4.15c62.33,2.89,119.45,32,174.51,60.17,6.82,3.49,13.87,7.09,20.77,10.57,24.83,12.49,53.93,26.44,85.06,33.76,19.22,4.52,40.54,6.85,65.19,7.13,35,.4,62.79-3.56,86.95-12.43,1.27-.47,2.81-.94,4.06-1.44v4.27a26.33,26.33,0,0,1-2.7,1.1C409.17,426.9,382.37,431,349.09,431Z" transform="translate(1.15 88.12)"/><path class="cls-4" d="M349.09,451.13l-4.76,0c-24.95-.28-46.57-2.65-66.09-7.24-31.57-7.43-60.93-21.5-86-34.1-6.92-3.48-14-7.09-20.8-10.58-54.66-28-111.19-56.87-172.62-59.72v-4.15c62.33,2.89,119.45,32,174.51,60.18,6.82,3.48,13.87,7.09,20.77,10.56,24.83,12.5,53.93,26.44,85.06,33.76,19.22,4.53,40.54,6.86,65.19,7.14,35,.39,62.79-3.57,86.95-12.44,1.27-.46,2.81-.94,4.06-1.43v4.26a22.47,22.47,0,0,1-2.7,1.1C409.17,447.06,382.37,451.13,349.09,451.13Z" transform="translate(1.15 88.12)"/><path class="cls-4" d="M349.09,471.29l-4.76,0c-24.95-.28-46.57-2.65-66.09-7.24-31.57-7.43-60.93-21.49-86-34.09-6.92-3.49-14-7.09-20.8-10.58-54.66-28-111.19-56.88-172.62-59.73v-4.14c62.33,2.89,119.45,32,174.51,60.17,6.82,3.48,13.87,7.09,20.77,10.57C219,438.71,248.06,452.65,279.19,460c19.22,4.52,40.54,6.85,65.19,7.13,35,.39,62.79-3.56,86.95-12.43,1.27-.47,2.81-.95,4.06-1.44v4.26a22.47,22.47,0,0,1-2.7,1.1C409.17,467.23,382.37,471.29,349.09,471.29Z" transform="translate(1.15 88.12)"/><path class="cls-4" d="M349.09,491.45c-1.57,0-3.16,0-4.76,0-24.95-.29-46.57-2.65-66.09-7.25-31.57-7.42-60.93-21.49-86-34.09-6.92-3.48-14-7.09-20.8-10.58-54.66-28-111.19-56.87-172.62-59.72v-4.15c62.33,2.89,119.45,32,174.51,60.17,6.82,3.49,13.87,7.09,20.77,10.57,24.83,12.49,53.93,26.44,85.06,33.76,19.22,4.52,40.54,6.86,65.19,7.13,35,.4,62.79-3.56,86.95-12.43,1.27-.47,2.81-.94,4.06-1.44v4.27a26.33,26.33,0,0,1-2.7,1.1C409.17,487.39,382.37,491.45,349.09,491.45Z" transform="translate(1.15 88.12)"/><path class="cls-4" d="M349.09,511.62l-4.76,0c-24.95-.28-46.57-2.65-66.09-7.24-31.57-7.43-60.93-21.5-86-34.1-6.92-3.48-14-7.09-20.8-10.58C116.81,431.71,60.28,402.8-1.15,400V395.8c62.33,2.89,119.45,32,174.51,60.18,6.82,3.48,13.87,7.09,20.77,10.56C219,479,248.06,493,279.19,500.31c19.22,4.52,40.54,6.85,65.19,7.13,35,.39,62.79-3.57,86.95-12.44,1.27-.46,2.81-.94,4.06-1.43v4.26a22.47,22.47,0,0,1-2.7,1.1C409.17,507.55,382.37,511.62,349.09,511.62Z" transform="translate(1.15 88.12)"/><path class="cls-4" d="M349.09,531.78l-4.76,0c-24.95-.28-46.57-2.65-66.09-7.24-31.57-7.43-60.93-21.49-86-34.09-6.92-3.49-14-7.09-20.8-10.58C116.81,451.88,60.28,423-1.15,420.11V416c62.33,2.89,119.45,32,174.51,60.17,6.82,3.49,13.87,7.09,20.77,10.57,24.83,12.49,53.93,26.43,85.06,33.76,19.22,4.52,40.54,6.85,65.19,7.13,35,.39,62.79-3.56,86.95-12.43,1.27-.47,2.81-.95,4.06-1.44V518a22.47,22.47,0,0,1-2.7,1.1C409.17,527.72,382.37,531.78,349.09,531.78Z" transform="translate(1.15 88.12)"/><path class="cls-4" d="M349.09,552l-4.76,0c-24.95-.28-46.57-2.65-66.09-7.24-31.57-7.43-60.93-21.5-86-34.1-6.92-3.48-14-7.09-20.8-10.58C116.81,472,60.28,443.13-1.15,440.28v-4.15c62.33,2.89,119.45,32,174.51,60.17,6.82,3.49,13.87,7.09,20.77,10.57,24.83,12.49,53.93,26.44,85.06,33.76,19.22,4.52,40.54,6.86,65.19,7.13,35,.4,62.79-3.56,86.95-12.43,1.27-.47,2.81-.94,4.06-1.44v4.27a26.33,26.33,0,0,1-2.7,1.1C409.17,547.88,382.37,552,349.09,552Z" transform="translate(1.15 88.12)"/><path class="cls-4" d="M349.09,572.11l-4.76,0c-24.95-.28-46.57-2.65-66.09-7.24-31.57-7.43-60.93-21.5-86-34.1-6.92-3.48-14-7.09-20.8-10.58-54.66-28-111.19-56.87-172.62-59.72v-4.15c62.33,2.89,119.45,32,174.51,60.18,6.82,3.48,13.87,7.09,20.77,10.56,24.83,12.5,53.93,26.44,85.06,33.77,19.22,4.52,40.54,6.85,65.19,7.13,35,.39,62.79-3.57,86.95-12.44,1.27-.46,2.81-.94,4.06-1.43v4.26a22.47,22.47,0,0,1-2.7,1.1C409.17,568,382.37,572.11,349.09,572.11Z" transform="translate(1.15 88.12)"/><path class="cls-4" d="M349.09,592.27l-4.76,0c-24.95-.28-46.57-2.65-66.09-7.24-31.57-7.43-60.93-21.49-86-34.09-6.92-3.49-14-7.09-20.8-10.58-54.66-28-111.19-56.88-172.62-59.72v-4.15c62.33,2.89,119.45,32,174.51,60.17,6.82,3.49,13.87,7.09,20.77,10.57C219,559.69,248.06,573.63,279.19,581c19.22,4.52,40.54,6.85,65.19,7.13,35,.39,62.79-3.56,86.95-12.43,1.27-.47,2.81-.95,4.06-1.44v4.26a22.47,22.47,0,0,1-2.7,1.1C409.17,588.21,382.37,592.27,349.09,592.27Z" transform="translate(1.15 88.12)"/><path class="cls-4" d="M349.09,612.44l-4.76,0c-24.95-.28-46.57-2.65-66.09-7.24-31.57-7.43-60.93-21.5-86-34.1-6.92-3.48-14-7.09-20.8-10.58-54.66-28-111.19-56.87-172.62-59.72v-4.15c62.33,2.89,119.45,32,174.51,60.17,6.82,3.49,13.87,7.09,20.77,10.57,24.83,12.49,53.93,26.44,85.06,33.76,19.22,4.52,40.54,6.86,65.19,7.13,35,.4,62.79-3.56,86.95-12.43,1.27-.46,2.81-.94,4.06-1.44v4.27a26.33,26.33,0,0,1-2.7,1.1C409.17,608.37,382.37,612.44,349.09,612.44Z" transform="translate(1.15 88.12)"/><path class="cls-4" d="M349.09,632.6l-4.76,0c-24.95-.28-46.57-2.65-66.09-7.24-31.57-7.43-60.93-21.5-86-34.1-6.92-3.48-14-7.09-20.8-10.58-54.66-28-111.19-56.87-172.62-59.72v-4.15c62.33,2.89,119.45,32,174.51,60.18,6.82,3.48,13.87,7.09,20.77,10.56C219,600,248.06,614,279.19,621.29c19.22,4.52,40.54,6.85,65.19,7.13,35,.39,62.79-3.57,86.95-12.44,1.27-.46,2.81-.94,4.06-1.43v4.26a22.47,22.47,0,0,1-2.7,1.1C409.17,628.53,382.37,632.6,349.09,632.6Z" transform="translate(1.15 88.12)"/><path class="cls-4" d="M349.09,652.76l-4.76,0c-24.95-.28-46.57-2.65-66.09-7.24-31.57-7.43-60.93-21.49-86-34.09-6.92-3.49-14-7.09-20.8-10.58-54.66-28-111.19-56.88-172.62-59.72V537c62.33,2.89,119.45,32,174.51,60.17,6.82,3.49,13.87,7.09,20.77,10.57,24.83,12.49,53.93,26.44,85.06,33.76,19.22,4.52,40.54,6.85,65.19,7.13,35,.39,62.79-3.56,86.95-12.43,1.27-.47,2.81-.95,4.06-1.44V639a22.47,22.47,0,0,1-2.7,1.1C409.17,648.7,382.37,652.76,349.09,652.76Z" transform="translate(1.15 88.12)"/><path class="cls-4" d="M349.09,672.93l-4.76,0c-24.95-.28-46.57-2.65-66.09-7.24-31.57-7.43-60.93-21.5-86-34.1-6.92-3.48-14-7.09-20.8-10.58C116.81,593,60.28,564.11-1.15,561.26v-4.15c62.33,2.89,119.45,32,174.51,60.17,6.82,3.49,13.87,7.09,20.77,10.57,24.83,12.49,53.93,26.44,85.06,33.76,19.22,4.52,40.54,6.86,65.19,7.14,35,.39,62.79-3.57,86.95-12.44,1.27-.46,2.81-.94,4.06-1.44v4.27a26.33,26.33,0,0,1-2.7,1.1C409.17,668.86,382.37,672.93,349.09,672.93Z" transform="translate(1.15 88.12)"/><path class="cls-4" d="M349.09,693.09l-4.76,0c-24.95-.28-46.57-2.65-66.09-7.24-31.57-7.43-60.93-21.49-86-34.1-6.92-3.48-14-7.09-20.8-10.57-54.66-28-111.19-56.88-172.62-59.73v-4.15c62.33,2.89,119.45,32,174.51,60.18,6.82,3.48,13.87,7.09,20.77,10.56,24.83,12.5,53.93,26.44,85.06,33.77,19.22,4.52,40.54,6.85,65.19,7.13,35,.39,62.79-3.56,86.95-12.44,1.27-.46,2.81-.94,4.06-1.43v4.26a22.47,22.47,0,0,1-2.7,1.1C409.17,689,382.37,693.09,349.09,693.09Z" transform="translate(1.15 88.12)"/><path class="cls-4" d="M349.09,713.25l-4.76,0c-24.95-.29-46.57-2.66-66.09-7.25-31.57-7.42-60.93-21.49-86-34.09-6.92-3.49-14-7.09-20.8-10.58-54.66-28-111.19-56.88-172.62-59.72v-4.15c62.33,2.89,119.45,32,174.51,60.17,6.82,3.49,13.87,7.09,20.77,10.57,24.83,12.49,53.93,26.44,85.06,33.76,19.22,4.52,40.54,6.85,65.19,7.13,35,.39,62.79-3.56,86.95-12.43,1.27-.47,2.81-.95,4.06-1.44v4.26a22.47,22.47,0,0,1-2.7,1.1C409.17,709.19,382.37,713.25,349.09,713.25Z" transform="translate(1.15 88.12)"/></g></g><rect class="cls-5" x="134.43" y="400.92" width="173.69" height="21.8"/><path class="cls-4" d="M147.18,327.41h-1.72l-2.59-3.62v3.62h-1.51v-7.14h1.51v3.46l2.56-3.46H147l-2.6,3.43Z" transform="translate(1.15 88.12)"/><path class="cls-4" d="M155.21,323.83a3.84,3.84,0,0,1-.88,2.72,3.82,3.82,0,0,1-5,0,3.89,3.89,0,0,1-.88-2.73,3.85,3.85,0,0,1,.88-2.72,3.29,3.29,0,0,1,2.53-.94,3.25,3.25,0,0,1,2.52.94A3.91,3.91,0,0,1,155.21,323.83Zm-5.21,0a3,3,0,0,0,.45,1.8,1.62,1.62,0,0,0,1.36.61c1.21,0,1.81-.81,1.81-2.41s-.6-2.41-1.8-2.41a1.6,1.6,0,0,0-1.36.6A3,3,0,0,0,150,323.83Z" transform="translate(1.15 88.12)"/><path class="cls-4" d="M160.47,321.43a1.53,1.53,0,0,0-1.32.64,3,3,0,0,0-.47,1.79c0,1.59.6,2.39,1.79,2.39a5.69,5.69,0,0,0,1.82-.38v1.27a5.11,5.11,0,0,1-2,.36,3,3,0,0,1-2.38-.94,4,4,0,0,1-.83-2.71,4.41,4.41,0,0,1,.41-2,3,3,0,0,1,1.16-1.29,3.53,3.53,0,0,1,1.78-.44,4.75,4.75,0,0,1,2.09.5l-.49,1.23a6.13,6.13,0,0,0-.8-.33A2.29,2.29,0,0,0,160.47,321.43Z" transform="translate(1.15 88.12)"/><path class="cls-4" d="M167.58,327.41l-1.72-5.6h0q.09,1.71.09,2.28v3.32h-1.35v-7.14h2.06l1.69,5.46h0l1.79-5.46h2.06v7.14h-1.41V324c0-.16,0-.35,0-.55s0-.77.07-1.66h-.05L169,327.41Z" transform="translate(1.15 88.12)"/><path class="cls-4" d="M178.85,327.41h-4.11v-7.14h4.11v1.24h-2.6v1.57h2.42v1.24h-2.42v1.84h2.6Z" transform="translate(1.15 88.12)"/><path class="cls-4" d="M183.84,327.41h-1.51v-5.88h-1.94v-1.26h5.39v1.26h-1.94Z" transform="translate(1.15 88.12)"/><path class="cls-4" d="M194,323.83a3.84,3.84,0,0,1-.88,2.72,3.8,3.8,0,0,1-5,0,3.85,3.85,0,0,1-.88-2.73,3.8,3.8,0,0,1,.88-2.72,3.29,3.29,0,0,1,2.53-.94,3.24,3.24,0,0,1,2.51.94A3.91,3.91,0,0,1,194,323.83Zm-5.21,0a3,3,0,0,0,.46,1.8,1.59,1.59,0,0,0,1.36.61c1.2,0,1.81-.81,1.81-2.41s-.6-2.41-1.8-2.41a1.62,1.62,0,0,0-1.37.6A3,3,0,0,0,188.8,323.83Z" transform="translate(1.15 88.12)"/><path class="cls-4" d="M201.79,327.41h-1.5v-5.88h-1.75l-.08.65a35.39,35.39,0,0,1-.54,3.5,2.73,2.73,0,0,1-.66,1.41,1.69,1.69,0,0,1-1.21.41,2.2,2.2,0,0,1-.72-.1v-1.24a1.69,1.69,0,0,0,.53.09.46.46,0,0,0,.41-.23,3,3,0,0,0,.28-.88c.09-.43.21-1.13.36-2.11s.27-1.89.38-2.76h4.5Z" transform="translate(1.15 88.12)"/><path class="cls-4" d="M210.83,323.83a3.88,3.88,0,0,1-.88,2.72,3.82,3.82,0,0,1-5,0,3.85,3.85,0,0,1-.88-2.73,3.8,3.8,0,0,1,.88-2.72,3.29,3.29,0,0,1,2.53-.94,3.24,3.24,0,0,1,2.51.94A3.86,3.86,0,0,1,210.83,323.83Zm-5.21,0a3,3,0,0,0,.45,1.8,1.61,1.61,0,0,0,1.36.61c1.21,0,1.81-.81,1.81-2.41s-.6-2.41-1.8-2.41a1.59,1.59,0,0,0-1.36.6A3,3,0,0,0,205.62,323.83Z" transform="translate(1.15 88.12)"/><path class="cls-4" d="M217.57,320.27v1.25h-3v5.89h-1.51v-7.14Z" transform="translate(1.15 88.12)"/><path class="cls-4" d="M219.42,320.27h1.36v3.45l0,.92,0,1.05h0l3.3-5.42h1.81v7.14H224.5V324q0-.69.09-2h0l-3.31,5.47h-1.82Z" transform="translate(1.15 88.12)"/><path class="cls-4" d="M230.8,324.67l-1.67,2.74h-1.68l2-3.14a2,2,0,0,1-.93-.76,2.24,2.24,0,0,1-.32-1.2,1.77,1.77,0,0,1,.7-1.51,3.26,3.26,0,0,1,2-.53h2.32v7.14h-1.51v-2.74Zm.94-3.16H231a1.68,1.68,0,0,0-.91.21.78.78,0,0,0-.32.7,1,1,0,0,0,.31.74,1.39,1.39,0,0,0,1,.28h.71Z" transform="translate(1.15 88.12)"/><path class="cls-4" d="M240.66,323h.6a3.58,3.58,0,0,1,2.15.56,1.9,1.9,0,0,1,.77,1.61c0,1.48-1,2.23-3,2.23h-2.08v-7.14h4.51v1.25h-3Zm0,3.16h.51a2,2,0,0,0,1.12-.25.83.83,0,0,0,.36-.74.76.76,0,0,0-.36-.71,2.53,2.53,0,0,0-1.24-.22h-.39Z" transform="translate(1.15 88.12)"/><path class="cls-4" d="M252,320.27l-2.21,5.05a5.76,5.76,0,0,1-.78,1.36,2.15,2.15,0,0,1-.85.62,3.18,3.18,0,0,1-1.22.2,4.14,4.14,0,0,1-1.14-.14v-1.3a2.82,2.82,0,0,0,1.07.18,1.06,1.06,0,0,0,.64-.19,1.39,1.39,0,0,0,.43-.65l-2.47-5.13h1.6l1.76,4h0a8.06,8.06,0,0,1,.33-.88l1.23-3.1Z" transform="translate(1.15 88.12)"/><path class="cls-4" d="M252.57,326.15h.55a17.88,17.88,0,0,0,1.12-2.83,20.57,20.57,0,0,0,.61-3.05H259v5.88H260v3.34H258.5v-2.08H254v2.08h-1.46Zm3.48-4.62a18.58,18.58,0,0,1-.52,2.37,18.77,18.77,0,0,1-.82,2.25h2.79v-4.62Z" transform="translate(1.15 88.12)"/><path class="cls-4" d="M267.54,320.27l-2.21,5.05a5.76,5.76,0,0,1-.78,1.36,2.18,2.18,0,0,1-.86.62,3.1,3.1,0,0,1-1.21.2,4.14,4.14,0,0,1-1.14-.14v-1.3a2.82,2.82,0,0,0,1.07.18,1.06,1.06,0,0,0,.64-.19,1.39,1.39,0,0,0,.43-.65L261,320.27h1.6l1.76,4h.05a8.06,8.06,0,0,1,.33-.88l1.23-3.1Z" transform="translate(1.15 88.12)"/><path class="cls-4" d="M274.44,326.15h2.22v-5.88h1.51v5.94h1.06v3.28h-1.46v-2.08h-8.58v-7.14h1.51v5.88h2.22v-5.88h1.52Z" transform="translate(1.15 88.12)"/><path class="cls-4" d="M285.19,327.41h-4.11v-7.14h4.11v1.24h-2.6v1.57H285v1.24h-2.42v1.84h2.6Z" transform="translate(1.15 88.12)"/><path class="cls-4" d="M291.94,320.27v1.25h-3v5.89h-1.51v-7.14Z" transform="translate(1.15 88.12)"/><path class="cls-4" d="M300.17,323.83a3.84,3.84,0,0,1-.88,2.72,3.82,3.82,0,0,1-5,0,4.66,4.66,0,0,1,0-5.45,3.29,3.29,0,0,1,2.53-.94,3.25,3.25,0,0,1,2.52.94A3.91,3.91,0,0,1,300.17,323.83Zm-5.21,0a3,3,0,0,0,.45,1.8,1.61,1.61,0,0,0,1.36.61c1.21,0,1.81-.81,1.81-2.41s-.6-2.41-1.8-2.41a1.6,1.6,0,0,0-1.36.6A3,3,0,0,0,295,323.83Z" transform="translate(1.15 88.12)"/><g id="logo"><path class="cls-6" d="M307,276.73v5.63h-.82l-1.42-3.63h-6.24v7.79h4.24l1.36-2.37h.5a29.06,29.06,0,0,1,.15,3.11,31.69,31.69,0,0,1-.15,3.2h-.5L302.76,288h-4.24v8.25h6l1.63-3.91H307v5.91H291.62v-.68a10.76,10.76,0,0,1,1.17-.52,6.73,6.73,0,0,1,1.35-.37V278.3a11.74,11.74,0,0,1-1.31-.35,5.88,5.88,0,0,1-1.21-.54v-.68Z" transform="translate(1.15 88.12)"/><path class="cls-6" d="M268.23,276.73h9.48v.68a6.93,6.93,0,0,1-2.34,1v12.19a7.91,7.91,0,0,0,.34,2.52,4,4,0,0,0,1,1.65,3.81,3.81,0,0,0,1.56.91,7.16,7.16,0,0,0,2.05.28,5.58,5.58,0,0,0,1.86-.3,7.59,7.59,0,0,0,2-.94,4.1,4.1,0,0,0,1.21-1.69,8.38,8.38,0,0,0,.34-2.59v-12a13.16,13.16,0,0,1-1.46-.43,5.59,5.59,0,0,1-1.25-.62v-.68h6.9v.68a5.15,5.15,0,0,1-1.23.65c-.45.16-.89.29-1.32.4v12.06c0,2.63-.12,4.35-1.59,5.75a8.18,8.18,0,0,1-6.36,2.29c-2.75-.05-4.87-.61-6.37-1.85s-2.25-3.2-2.25-5.91V278.46a8.09,8.09,0,0,1-2.52-1Z" transform="translate(1.15 88.12)"/><path class="cls-6" d="M268.62,302c-3.06,2.95-4.23,3.16-7.58,2.89-4-.34-6.81-4.19-10.8-4.18l.28-.62a13.93,13.93,0,0,1,3.4-.14,20.86,20.86,0,0,1,2.83.46c.94.21,1.87.46,2.81.72a25.36,25.36,0,0,0,2.81.65,16.37,16.37,0,0,0,2.9.23,10,10,0,0,0,3.05-.54Z" transform="translate(1.15 88.12)"/><path class="cls-6" d="M266.4,283.3a10.21,10.21,0,0,0-2-3.54,8.9,8.9,0,0,0-3.25-2.32,12.29,12.29,0,0,0-8.93,0,8.9,8.9,0,0,0-3.27,2.32,10.09,10.09,0,0,0-2,3.54,14.9,14.9,0,0,0,0,8.9,9.92,9.92,0,0,0,2,3.54,9,9,0,0,0,3.27,2.33,12.42,12.42,0,0,0,8.93,0,9,9,0,0,0,3.25-2.33,10,10,0,0,0,2-3.54,14.9,14.9,0,0,0,0-8.9Zm-9.71,14.41c-3.38,0-6.11-4.46-6.11-10s2.73-10,6.11-10,6.11,4.46,6.11,10S260.06,297.71,256.69,297.71Z" transform="translate(1.15 88.12)"/><path class="cls-6" d="M223.33,296.71a7.38,7.38,0,0,1,2.68.89v.68h-9.27v-.68a9.28,9.28,0,0,1,1-.5,7.18,7.18,0,0,1,1.16-.39V278.3a5.64,5.64,0,0,1-1.24-.4,8.74,8.74,0,0,1-1-.49v-.68H232c0,.41.08,5.22,0,5.63h-.77l-1.42-4.12h-6.46v8.59h4.89l1.2-2.13h.47a15.5,15.5,0,0,1,.18,2.75c0,1.11-.08,2.12-.18,3.05h-.47l-1.2-2.16h-4.89Z" transform="translate(1.15 88.12)"/><path class="cls-6" d="M214.46,277.3v-.61h-9.29v.61a7.77,7.77,0,0,0,2.44.89v13.52s0,0,0,0v5a7.77,7.77,0,0,0-2.44.89v.61h9.29v-.61a7.77,7.77,0,0,0-2.44-.89v-5s0,0,0,0V278.19A7.77,7.77,0,0,0,214.46,277.3Z" transform="translate(1.15 88.12)"/><path class="cls-6" d="M244,277.3v-.61h-9.29v.61a7.77,7.77,0,0,0,2.44.89v13.52s0,0,0,0v5a7.77,7.77,0,0,0-2.44.89v.61H244v-.61a7.73,7.73,0,0,0-2.45-.89v-5s0,0,0,0V278.19A7.73,7.73,0,0,0,244,277.3Z" transform="translate(1.15 88.12)"/><path class="cls-6" d="M182.38,298.28v-.68a7.48,7.48,0,0,1,1.17-.54,8.35,8.35,0,0,1,1.35-.35V278.3a12,12,0,0,1-1.37-.38,6.93,6.93,0,0,1-1.15-.51v-.68H186l1.29,0,1.6-.08,1.62-.09c.52,0,1,0,1.34,0a15.08,15.08,0,0,1,4.79.71,9.83,9.83,0,0,1,3.57,2.06,9.2,9.2,0,0,1,2.25,3.36,12.71,12.71,0,0,1,.78,4.62,14,14,0,0,1-.74,4.65,9.33,9.33,0,0,1-2.21,3.57,10.08,10.08,0,0,1-3.75,2.3,15.73,15.73,0,0,1-5.31.81c-.26,0-.62,0-1.08-.05l-1.44-.09-1.54-.09c-.52,0-1-.05-1.36-.05Zm9-19.79-1.11,0c-.37,0-.69.05-.95.09v17.83a2.69,2.69,0,0,0,.43,0l.63,0,.63,0a4.4,4.4,0,0,0,.46,0,7.87,7.87,0,0,0,3.52-.74,6.12,6.12,0,0,0,2.05-2,9.26,9.26,0,0,0,1.17-3,16.64,16.64,0,0,0,.37-3.6,13.41,13.41,0,0,0-.39-3.26,9.08,9.08,0,0,0-1.18-2.81,6.22,6.22,0,0,0-2.08-2A8.07,8.07,0,0,0,191.4,278.49Z" transform="translate(1.15 88.12)"/><path class="cls-6" d="M180.32,283.3a10.07,10.07,0,0,0-2-3.54,8.74,8.74,0,0,0-3.25-2.32,12.26,12.26,0,0,0-8.92,0,8.9,8.9,0,0,0-3.27,2.32,10.09,10.09,0,0,0-2,3.54,14.9,14.9,0,0,0,0,8.9,9.92,9.92,0,0,0,2,3.54,9,9,0,0,0,3.27,2.33,12.4,12.4,0,0,0,8.92,0,8.88,8.88,0,0,0,3.25-2.33,9.9,9.9,0,0,0,2-3.54,14.9,14.9,0,0,0,0-8.9Zm-9.71,14.41c-3.38,0-6.12-4.46-6.12-10s2.74-10,6.12-10,6.11,4.46,6.11,10S174,297.71,170.61,297.71Z" transform="translate(1.15 88.12)"/><path class="cls-6" d="M157.9,298.28h-9.21v-.68a12.11,12.11,0,0,1,1.2-.52,10.4,10.4,0,0,1,1.26-.37l.16-17h-.25l-7.69,18.53h-.68l-7-18.72h-.27l0,17a7.46,7.46,0,0,1,1.29.4,12.48,12.48,0,0,1,1.33.61v.68h-6.78v-.68c.32-.16.73-.36,1.21-.58a5.66,5.66,0,0,1,1.37-.46V278.3c-.41-.08-.84-.19-1.31-.33a5,5,0,0,1-1.21-.56v-.68h7.61l5.39,14.76,6-14.76h7.64v.68a6.92,6.92,0,0,1-1.13.54,7.57,7.57,0,0,1-1.21.35v18.44a6.56,6.56,0,0,1,1.24.37,11.06,11.06,0,0,1,1.07.49Z" transform="translate(1.15 88.12)"/></g></g></g></svg>