<?xml version="1.0" encoding="iso-8859-1"?>
<!-- Generator: Adobe Illustrator 19.0.0, SVG Export Plug-In . SVG Version: 6.00 Build 0)  -->
<svg version="1.1" id="Capa_1" xmlns="http://www.w3.org/2000/svg" xmlns:xlink="http://www.w3.org/1999/xlink" x="0px" y="0px"
	 viewBox="0 0 496 496" style="enable-background:new 0 0 496 496;" xml:space="preserve">
<g>
	<path style="fill:#F0BC5E;" d="M232,360c0-43.992,22.208-82.776,56-105.816l0,0c0-7.832-6.352-14.184-14.184-14.184H62.184
		C54.352,240,48,246.352,48,254.184v115.632C48,377.648,54.352,384,62.184,384H232v-16l0.368-0.736
		C232.232,364.848,232,362.456,232,360z"/>
	<path style="fill:#F0BC5E;" d="M400,400h-80c-8.84,0-16-7.16-16-16v-48c0-8.84,7.16-16,16-16h80c8.84,0,16,7.16,16,16v48
		C416,392.84,408.84,400,400,400z"/>
</g>
<rect x="232" y="112" width="16" height="16"/>
<rect x="184" y="112" width="32" height="16"/>
<path d="M360,224c-8.2,0-16.192,0.856-24,2.248v-27.552L317.768,144H307.68c7.632-8.504,12.32-19.696,12.32-32
	c0-26.472-21.528-48-48-48h-19.056l-1.168-2.336C232.76,23.632,194.528,0,152,0h-8v8c0,22.056-17.944,40-40,40
	c-28.152,0-51.456,20.904-55.36,48H48c-17.648,0-32,14.352-32,32c0,5.856,1.696,11.272,4.448,16h-2.216L0,198.704V376
	c0,30.88,25.12,56,56,56h188.832c24.072,38.36,66.632,64,115.168,64c74.992,0,136-61.008,136-136S434.992,224,360,224z M48,160h224
	h34.232l10.664,32h-297.8l10.664-32H48z M32,128c0-8.824,7.176-16,16-16h88V96H64.808C68.52,77.768,84.68,64,104,64
	c28.064,0,51.376-20.752,55.392-47.72c31.568,2.4,59.456,20.184,75.264,47.72H200v16h72c17.648,0,32,14.352,32,32s-14.352,32-32,32
	H48C39.176,144,32,136.824,32,128z M56,416c-22.056,0-40-17.944-40-40V208h304v22.024c-55.528,17.12-96,68.904-96,129.976
	c0,19.976,4.44,38.896,12.208,56H56z M360,480c-66.168,0-120-53.832-120-120s53.832-120,120-120s120,53.832,120,120
	S426.168,480,360,480z"/>
<path d="M360,256c-57.344,0-104,46.656-104,104s46.656,104,104,104s104-46.656,104-104S417.344,256,360,256z M360,448
	c-48.52,0-88-39.48-88-88s39.48-88,88-88s88,39.48,88,88S408.52,448,360,448z"/>
<rect x="344" y="352" width="32" height="16"/>
<g>
</g>
<g>
</g>
<g>
</g>
<g>
</g>
<g>
</g>
<g>
</g>
<g>
</g>
<g>
</g>
<g>
</g>
<g>
</g>
<g>
</g>
<g>
</g>
<g>
</g>
<g>
</g>
<g>
</g>
</svg>
