<?xml version="1.0" encoding="utf-8"?>
<!-- Generator: Adobe Illustrator 24.1.2, SVG Export Plug-In . SVG Version: 6.00 Build 0)  -->
<svg version="1.1" id="Слой_1" xmlns="http://www.w3.org/2000/svg" xmlns:xlink="http://www.w3.org/1999/xlink" x="0px" y="0px"
	 viewBox="0 0 200 200" style="enable-background:new 0 0 200 200;" xml:space="preserve">
<style type="text/css">
	.st0{fill:#FCC537;}
	.st1{fill:#FFFFFF;}
</style>
<circle class="st0" cx="100" cy="99.5" r="100"/>
<path class="st1" d="M75.2,70.5c-1.9-6.3-7-5.7-10.4-2.7c-8.6,7.9-19.7,24.5-12.6,48.4c6,20.3,30.9,33.2,30.9,33.2H54
	c0,0-15-16.8-16.3-36.5C36,88,46,72.3,57.6,62c10.9-9.7,21.2-12.5,21.2-12.5l21.2,69.4l21.2-69.4c0,0,10.4,2.9,21.2,12.5
	c11.6,10.3,21.6,26,19.9,51c-1.3,19.7-16.3,36.5-16.3,36.5h-29c0,0,24.9-13,30.9-33.2c7.1-23.9-4-40.5-12.6-48.4
	c-3.5-3-8.6-3.7-10.4,2.7c-6.4,20.3-24.8,78.3-24.8,78.3S81.6,90.8,75.2,70.5L75.2,70.5z"/>
</svg>
