<?xml version="1.0" encoding="utf-8"?>
<!-- Generator: Adobe Illustrator 24.1.2, SVG Export Plug-In . SVG Version: 6.00 Build 0)  -->
<svg version="1.1" id="Bold" xmlns="http://www.w3.org/2000/svg" xmlns:xlink="http://www.w3.org/1999/xlink" x="0px" y="0px"
	 viewBox="0 0 512 512" style="enable-background:new 0 0 512 512;" xml:space="preserve">
<style type="text/css">
	.st0{fill:#29A0DA;}
	.st1{fill:#FFFFFF;}
</style>
<path class="st0" d="M416,512H96c-53,0-96-43-96-96V96C0,43,43,0,96,0h320c53,0,96,43,96,96v320C512,469,469,512,416,512z"/>
<path class="st1" d="M228.4,289.9l-4.2,59.6c6.1,0,8.7-2.6,11.8-5.7l28.4-27.2l58.9,43.1c10.8,6,18.4,2.8,21.3-9.9l38.6-181l0,0
	c3.4-16-5.8-22.2-16.3-18.3l-227.1,86.9c-15.5,6-15.3,14.7-2.6,18.6l58,18.1l134.9-84.4c6.4-4.2,12.1-1.9,7.4,2.3L228.4,289.9z"/>
</svg>
