<?xml version="1.0" encoding="utf-8"?>
<!-- Generator: Adobe Illustrator 24.1.2, SVG Export Plug-In . SVG Version: 6.00 Build 0)  -->
<svg version="1.1" id="Bold" xmlns="http://www.w3.org/2000/svg" xmlns:xlink="http://www.w3.org/1999/xlink" x="0px" y="0px"
	 viewBox="0 0 512 512" style="enable-background:new 0 0 512 512;" xml:space="preserve">
<style type="text/css">
	.st0{fill:#4C75A3;}
	.st1{fill:#FFFFFF;}
</style>
<path class="st0" d="M416,512H96c-53,0-96-43-96-96V96C0,43,43,0,96,0h320c53,0,96,43,96,96v320C512,469,469,512,416,512z"/>
<path class="st1" d="M340.4,267c-4.1-5.2-2.9-7.6,0-12.2c0,0,34.2-47.3,37.7-63.3l0,0c1.8-5.8,0-10.1-8.5-10.1h-28
	c-7.1,0-10.4,3.7-12.2,7.8c0,0-14.3,34.1-34.4,56.2c-6.5,6.4-9.5,8.4-13.1,8.4c-1.8,0-4.5-2-4.5-7.9v-54.4c0-7-2-10.1-7.9-10.1h-44
	c-4.5,0-7.1,3.3-7.1,6.3c0,6.6,10.1,8.2,11.1,26.8V255c0,8.9-1.6,10.5-5.2,10.5c-9.5,0-32.6-34.3-46.3-73.4
	c-2.8-7.6-5.5-10.7-12.6-10.7h-28c-8,0-9.6,3.7-9.6,7.8c0,7.3,9.5,43.4,44.2,91.2c23.2,32.6,55.7,50.3,85.4,50.3
	c17.8,0,20-3.9,20-10.7c0-31.2-1.6-34.1,7.3-34.1c4.1,0,11.3,2,27.9,17.8c19,18.7,22.1,27,32.8,27h28c8,0,12-3.9,9.7-11.7
	C378,302.7,342,269.2,340.4,267L340.4,267z"/>
</svg>
