<?xml version="1.0" encoding="utf-8"?>
<!-- Generator: Adobe Illustrator 24.1.2, SVG Export Plug-In . SVG Version: 6.00 Build 0)  -->
<svg version="1.1" id="Bold" xmlns="http://www.w3.org/2000/svg" xmlns:xlink="http://www.w3.org/1999/xlink" x="0px" y="0px"
	 viewBox="0 0 512 512" style="enable-background:new 0 0 512 512;" xml:space="preserve">
<style type="text/css">
	.st0{fill:#1BD641;}
	.st1{fill:#FCFEFD;}
</style>
<path class="st0" d="M416,512H96c-53,0-96-43-96-96V96C0,43,43,0,96,0h320c53,0,96,43,96,96v320C512,469,469,512,416,512z"/>
<g>
	<path class="st1" d="M123,391.2c4.5-16,8.8-31.4,13.2-46.8c1.7-5.9,3.3-11.8,5-17.7c0.6-1.8,0.4-3.3-0.5-4.9
		c-11.3-20.1-17.2-41.7-17.3-64.7c-0.1-28.6,7.9-55,24.4-78.4c16.9-23.9,39.2-40.7,66.9-50.3c21.4-7.4,43.4-9.4,65.7-5.3
		c47.8,8.9,81.8,35.9,101.7,80.1c10.7,23.8,13.4,49,8.8,74.8c-7.6,42.7-30.4,75.2-68.3,95.9c-41,22.3-83.2,22.5-125.3,2.1
		c-3.6-1.8-6.7-2.3-10.6-1.2C165.7,380.3,144.7,385.6,123,391.2z M370.1,258.7c-0.4-16.3-2.5-29.3-7.2-42
		c-19-51.5-73.9-82-127.6-70.6c-46.7,9.9-82.2,48.4-88.1,95.8c-3.4,27.3,2.7,52.6,17.7,75.7c1.4,2.1,1.6,3.9,0.9,6.3
		c-3.1,10.6-5.9,21.3-9.1,31.8c-1,3.3,0,3.3,2.7,2.6c10.8-2.9,21.6-5.6,32.4-8.4c2.7-0.7,4.8-0.5,7.3,1
		c28.9,17.4,59.7,21.5,91.9,11.9C337.6,348.7,370,304.6,370.1,258.7z"/>
	<path class="st1" d="M215,192.8c6.3-1.4,9.4,2.2,11.6,8.2c2.8,7.6,6.2,15,9.6,22.5c1.5,3.3,1.1,5.9-1.4,8.6c-3,3.2-5.7,6.7-8.7,9.9
		c-1.7,1.9-2,3.8-0.7,6.1c11,19.4,27.1,32.6,47.8,40.5c2.3,0.9,3.8-0.1,5.2-1.8c3.3-4.3,6.7-8.5,9.9-12.8c2.1-2.9,4.5-3.5,7.8-2
		c8.8,4.2,17.7,8.3,26.6,12.3c3.8,1.6,4.4,4.1,3.8,7.8c-3.7,24.3-26.2,32-45.8,26.1c-29.4-8.8-52.8-26.1-71.6-50
		c-8-10.2-14.9-21.1-17.8-34c-3.6-15.4,0.5-28.2,12.2-38.7C206.7,192.7,210.4,192.3,215,192.8z"/>
</g>
</svg>
